<svg width="19" height="11" viewBox="0 0 19 11" fill="none" xmlns="http://www.w3.org/2000/svg">
<path d="M0.333984 10.5V0.246094H3.69043C4.93001 0.246094 6.00326 0.455729 6.91016 0.875C7.81706 1.29427 8.51888 1.88672 9.01562 2.65234C9.51237 3.41797 9.76074 4.32487 9.76074 5.37305C9.76074 6.41667 9.51237 7.32357 9.01562 8.09375C8.51888 8.85938 7.81706 9.45182 6.91016 9.87109C6.00326 10.2904 4.93001 10.5 3.69043 10.5H0.333984ZM2.43945 8.66113H3.76562C4.58594 8.66113 5.28092 8.53353 5.85059 8.27832C6.4248 8.01855 6.86003 7.64486 7.15625 7.15723C7.45703 6.66504 7.60742 6.07031 7.60742 5.37305C7.60742 4.67122 7.45703 4.0765 7.15625 3.58887C6.86003 3.10124 6.4248 2.72982 5.85059 2.47461C5.28092 2.21484 4.58594 2.08496 3.76562 2.08496H2.43945V8.66113ZM15.2396 10.5H13.1341V2.08496H10.1127V0.246094H18.2679V2.08496H15.2396V10.5Z" fill="white"/>
</svg>
