<svg width="48" height="48" viewBox="0 0 48 48" fill="none" xmlns="http://www.w3.org/2000/svg">
<rect x="1" y="1" width="46" height="46" rx="23" fill="white"/>
<path d="M15.334 29.5V19.2461H18.6904C19.93 19.2461 21.0033 19.4557 21.9102 19.875C22.8171 20.2943 23.5189 20.8867 24.0156 21.6523C24.5124 22.418 24.7607 23.3249 24.7607 24.373C24.7607 25.4167 24.5124 26.3236 24.0156 27.0938C23.5189 27.8594 22.8171 28.4518 21.9102 28.8711C21.0033 29.2904 19.93 29.5 18.6904 29.5H15.334ZM17.4395 27.6611H18.7656C19.5859 27.6611 20.2809 27.5335 20.8506 27.2783C21.4248 27.0186 21.86 26.6449 22.1562 26.1572C22.457 25.665 22.6074 25.0703 22.6074 24.373C22.6074 23.6712 22.457 23.0765 22.1562 22.5889C21.86 22.1012 21.4248 21.7298 20.8506 21.4746C20.2809 21.2148 19.5859 21.085 18.7656 21.085H17.4395V27.6611ZM30.2396 29.5H28.1341V21.085H25.1127V19.2461H33.2679V21.085H30.2396V29.5Z" fill="#DD4224"/>
<rect x="1" y="1" width="46" height="46" rx="23" stroke="#DD4224" stroke-width="2"/>
</svg>
