<svg width="32" height="32" viewBox="0 0 32 32" fill="none" xmlns="http://www.w3.org/2000/svg">
<path d="M18 13.3334H12C11.2667 13.3334 10.6667 13.9334 10.6667 14.6667V18.6667C10.6667 19.4 11.2667 20 12 20C12.7334 20 13.3334 19.4 13.3334 18.6667V16H18V17.72C18 18.32 18.72 18.6134 19.1334 18.1867L22.1867 15.1334C22.4534 14.8667 22.4534 14.4534 22.1867 14.1867L19.1334 11.1334C18.72 10.72 18 11.0134 18 11.6V13.3334ZM16 1.33337C7.86671 1.33337 1.33337 7.86671 1.33337 16C1.33337 24.1334 7.86671 30.6667 16 30.6667C24.1334 30.6667 30.6667 24.1334 30.6667 16C30.6667 7.86671 24.1334 1.33337 16 1.33337ZM26.3067 16.7734L16.72 26.4C16.2534 26.76 15.6667 26.76 15.1867 26.4L5.60004 16.7734C5.24004 16.2934 5.24004 15.7067 5.60004 15.2267L15.1867 5.60004C15.6534 5.24004 16.24 5.24004 16.72 5.60004L26.3067 15.2267C26.7867 15.5867 26.7867 16.2934 26.3067 16.7734Z" fill="#2C97FB"/>
</svg>
