<svg width="38" height="60" viewBox="0 0 38 60" fill="none" xmlns="http://www.w3.org/2000/svg">
<path d="M19 60C23.9706 60 28 55.9706 28 51C28 46.0294 23.9706 42 19 42C14.0294 42 10 46.0294 10 51C10 55.9706 14.0294 60 19 60Z" fill="#141E23"/>
<path d="M19 58C22.866 58 26 54.866 26 51C26 47.134 22.866 44 19 44C15.134 44 12 47.134 12 51C12 54.866 15.134 58 19 58Z" fill="white"/>
<path d="M19 55C21.2091 55 23 53.2091 23 51C23 48.7909 21.2091 47 19 47C16.7909 47 15 48.7909 15 51C15 53.2091 16.7909 55 19 55Z" fill="#141E23"/>
<rect x="1" y="1" width="36" height="36" rx="9" fill="#F2F2F2"/>
<g filter="url(#filter0_f_368_11151)">
<path d="M24.4285 30.3918C24.4285 30.7279 21.9463 31 18.8829 31C15.8196 31 13.3457 30.7279 13.3457 30.3918C13.3457 30.0558 15.8196 29.7837 18.8829 29.7837C21.9463 29.7837 24.4285 30.0558 24.4285 30.3918Z" fill="#787878"/>
</g>
<path d="M30.9954 15.1719C31.0064 15.0865 30.9981 15.0092 30.9705 14.9398C30.8957 14.7398 30.6716 14.6118 30.2316 14.5797C29.3184 14.5077 28.3305 15.1239 27.6581 15.644C26.7947 16.3162 25.8151 17.1244 25.1925 18.0206C25.0929 18.1727 25.3419 18.3167 25.4498 18.1647C25.4664 18.1406 25.4913 18.1166 25.5079 18.0846C25.8815 19.0369 26.2634 19.9491 26.994 20.7093C27.5087 21.2534 28.48 22.0456 29.2686 22.1337C29.5509 22.1657 29.6754 22.0136 29.6754 21.7736C29.6754 21.6775 29.6671 21.5815 29.6339 21.4695C29.526 21.0614 29.2271 20.5733 28.8784 20.2852C29.1026 20.2692 29.3267 20.2692 29.5592 20.2932C29.7999 20.3172 30.0988 20.3252 30.3312 20.2212C30.489 20.1492 30.6218 20.0531 30.7131 19.9411C30.7574 19.8824 30.7961 19.8184 30.8293 19.7491C30.8791 19.613 30.8958 19.461 30.8708 19.2929C30.7463 18.5407 29.5509 18.0606 28.7539 17.9006C29.3765 17.3484 30.9124 15.9721 30.9954 15.1719Z" fill="#50915A"/>
<path d="M30.9954 15.1718C30.3479 15.4118 29.7087 15.6599 29.086 15.948C28.4717 16.244 27.7993 16.4921 27.2846 16.9482C27.1766 17.0442 27.0106 16.8842 27.1185 16.7882C27.6581 16.316 28.3306 16.076 28.9698 15.7559C29.6173 15.4358 30.2898 15.1798 30.9705 14.9397C30.9982 15.009 31.0065 15.0864 30.9954 15.1718Z" fill="#1FA766"/>
<path d="M30.8293 19.7491C29.5674 19.261 28.2641 18.5808 26.9275 18.6208C26.7781 18.6288 26.7781 18.8529 26.9275 18.8449C27.7245 18.8209 28.4716 19.149 29.2188 19.373C29.7335 19.5331 30.215 19.7491 30.7131 19.9412L30.8293 19.7491Z" fill="#1FA766"/>
<path d="M29.6756 21.7735C29.2771 21.4774 28.8952 21.1653 28.4718 20.9092C27.8077 20.4931 27.102 20.1411 26.4213 19.7409C26.2968 19.6609 26.413 19.4689 26.5458 19.5489C27.2681 19.981 28.0567 20.3411 28.7541 20.8212C29.0529 21.0293 29.3435 21.2533 29.634 21.4694C29.6673 21.5814 29.6756 21.6774 29.6756 21.7735Z" fill="#1FA766"/>
<path d="M28.5295 24.6464C27.9152 24.7664 27.442 25.1105 26.9937 25.4946C26.9439 25.5373 26.8913 25.5826 26.8359 25.6306C26.5869 25.8547 26.3378 26.0868 26.0639 26.2948C25.4081 26.7829 24.7522 27.231 24.03 27.5991C23.9636 27.6365 23.8944 27.6712 23.8224 27.7032C23.6896 27.7725 23.554 27.8365 23.4156 27.8952C22.1621 28.4393 20.7508 28.7034 19.3644 28.6474L19.1154 28.6314C18.6422 28.5994 18.1773 28.5274 17.729 28.4153C17.0399 28.2553 16.3426 28.0473 15.6453 27.7912C15.5622 27.7592 15.482 27.7272 15.4045 27.6952C12.5985 26.6149 10.0167 24.7584 9.17822 21.8777C9.33596 21.8137 9.40237 21.6616 9.40237 21.4936C9.40237 21.4669 9.3996 21.4429 9.39407 21.4216C9.3996 21.3896 9.3996 21.3576 9.39407 21.3256C11.0627 22.0377 12.8974 22.3578 14.7321 22.2138C17.015 22.0377 18.8165 20.8054 20.9334 20.1092C22.5274 19.5811 24.4285 19.5651 25.7484 20.7254C26.9356 21.7737 27.4835 23.294 28.5959 24.4143C28.6706 24.4864 28.6457 24.6304 28.5295 24.6464Z" fill="#50915A"/>
<path d="M26.9937 25.4948C26.9439 25.5374 26.8913 25.5828 26.8359 25.6308C26.7031 25.4308 26.5703 25.2387 26.396 25.0627C25.956 24.6065 25.4828 24.1664 25.0013 23.7503C23.8971 22.8061 22.7017 21.8699 21.4398 21.1257C21.3153 21.0536 21.4315 20.8536 21.5644 20.9336C22.7764 21.6538 23.9387 22.542 25.0096 23.4542C25.5326 23.9104 26.1137 24.3745 26.562 24.9026C26.7197 25.0867 26.8609 25.2947 26.9937 25.4948Z" fill="#1FA766"/>
<path d="M24.0297 27.5991C23.9633 27.6365 23.8941 27.6711 23.8222 27.7032C23.3157 27.111 22.7595 26.5509 22.1452 26.0627C21.0743 25.2065 19.7875 24.7824 18.6751 24.0062C18.5589 23.9262 18.6751 23.7261 18.7913 23.8142C19.9204 24.5984 21.2403 25.0225 22.3112 25.9027C22.9422 26.4228 23.5067 26.991 24.0297 27.5991Z" fill="#1FA766"/>
<path d="M19.3646 28.6474C19.3314 28.5621 19.2982 28.4794 19.265 28.3994C18.9827 27.6712 18.5511 26.983 18.3103 26.2468C18.0447 25.4146 17.6213 24.2063 16.6666 23.9102C16.5171 23.8622 16.459 24.0783 16.6002 24.1263C17.5549 24.4144 17.9367 25.7827 18.1775 26.6069C18.2522 26.855 18.4348 27.111 18.5511 27.3511C18.7558 27.7725 18.944 28.1993 19.1156 28.6314L19.3646 28.6474Z" fill="#1FA766"/>
<path d="M15.6452 27.7913C15.5622 27.7593 15.4819 27.7273 15.4044 27.6953C15.3325 27.2632 15.2605 26.8284 15.1886 26.391C15.0557 25.5828 15.0474 24.5265 14.4497 23.8863C14.3501 23.7743 14.5078 23.6143 14.6075 23.7263C15.2301 24.3905 15.2633 25.3987 15.3961 26.2309C15.4874 26.7511 15.5705 27.2712 15.6452 27.7913Z" fill="#1FA766"/>
<path d="M27.9069 12.0352C27.3423 11.8032 26.9107 11.331 26.5039 10.8429C26.4485 10.7789 26.3987 10.7175 26.3544 10.6589C26.1303 10.3868 25.9145 10.1147 25.6903 9.89067C25.0677 9.26651 24.4118 8.58634 23.6813 8.0502L23.4655 7.89816C22.9757 7.57008 22.4526 7.30601 21.8715 7.15398C20.8255 6.87391 19.6052 7.00994 18.4512 7.29001L18.4346 7.29801L18.0112 7.41004H17.9863C17.3803 7.58609 16.8075 7.78613 16.2928 7.97818C15.6203 8.22625 14.9811 8.51432 14.3668 8.8504L14.317 8.87441L13.7774 9.18649C12.9721 9.67461 12.2249 10.2428 11.5276 10.8989C10.6061 11.7711 9.76764 12.7794 9.0869 13.8357C8.52239 14.7239 8.20692 15.6361 7.89145 16.5804C7.67561 16.8204 7.51788 17.0925 7.47637 17.3966C7.46807 17.4606 7.50128 17.5166 7.55109 17.5406C7.54555 17.5619 7.53725 17.5806 7.52618 17.5966C7.46807 17.7727 7.75033 17.8447 7.81674 17.6766C7.93297 17.3486 8.04089 17.0205 8.14881 16.7004C8.65521 16.1002 9.51029 15.5801 10.0333 15.268C11.0461 14.6519 12.1834 14.3478 13.354 14.1477C15.4792 13.7877 17.8618 13.5476 19.9704 14.1157C21.7387 14.5959 23.0421 16.2763 25.0013 15.8602C26.1469 15.6201 26.9024 14.7079 27.5333 13.7877C27.5942 13.697 27.655 13.6063 27.7159 13.5156C27.8654 13.2915 28.0065 13.0755 28.1476 12.8674C28.4382 12.4353 28.4548 12.2593 27.9069 12.0352Z" fill="#50915A"/>
<path d="M13.7774 9.18667C12.9638 10.1549 12.3412 11.2352 12.2001 12.4915C12.1835 12.6355 12.4159 12.6355 12.4325 12.4915C12.5902 11.0831 13.3872 9.90685 14.3668 8.85059L13.7774 9.18667Z" fill="#1FA766"/>
<path d="M17.9862 7.41007C17.5766 7.79417 17.1837 8.1916 16.8073 8.60237C15.9772 9.5066 14.9478 10.4588 14.7485 11.7152C14.7236 11.8592 14.9478 11.9232 14.9727 11.7792C15.1719 10.4988 16.2677 9.53061 17.1062 8.61037C17.5296 8.14626 17.9779 7.70614 18.4511 7.29004L17.9862 7.41007Z" fill="#1FA766"/>
<path d="M23.4651 7.89819C22.7678 8.20227 22.0954 8.56236 21.4478 8.93846C20.2192 9.63463 18.6834 10.2028 17.9694 11.4751C17.903 11.6031 18.1023 11.7152 18.1687 11.5871C18.866 10.3548 20.3769 9.81868 21.5641 9.13051C22.2365 8.73841 22.9421 8.36231 23.681 8.05023L23.4651 7.89819Z" fill="#1FA766"/>
<path d="M26.5038 10.843C26.0555 10.947 25.6155 11.059 25.1755 11.1871C23.6812 11.6352 22.2367 12.2273 20.759 12.7075C20.6178 12.7555 20.5514 12.5394 20.6926 12.4914C22.1786 12.0113 23.6148 11.3951 25.1174 10.971C25.5269 10.859 25.9392 10.755 26.3543 10.6589C26.3986 10.7176 26.4484 10.779 26.5038 10.843Z" fill="#1FA766"/>
<path d="M27.4915 13.7877C25.3247 14.2518 22.9089 14.1078 20.7505 14.0998C20.5845 14.0998 20.5845 13.8757 20.7505 13.8757C22.9089 13.8837 25.4327 14.0438 27.6492 13.5156L27.4915 13.7877Z" fill="#1FA766"/>
<path d="M27.2097 16.2764C26.7448 16.1643 26.3546 16.3244 25.9395 16.5324C25.8067 16.5964 25.6711 16.6605 25.5327 16.7245C25.1426 16.5484 24.7856 16.1003 24.5282 15.8202C23.8724 15.1001 23.3909 14.2358 22.8596 13.4356C22.0958 12.2913 21.3155 11.1471 19.9457 10.6189C16.8824 9.41862 13.5202 10.723 11.121 12.6194C8.97914 14.3159 6.31429 17.1886 7.16107 20.0853C7.19981 20.2134 7.24685 20.3414 7.3022 20.4694C8.62217 20.2454 10.3323 19.6852 10.8553 18.3169C10.8553 18.3169 11.5195 20.2854 7.93312 21.5737C8.43123 22.2459 9.07046 22.854 9.68479 23.3902C10.1248 23.7823 10.5814 24.1663 11.0629 24.5024C12.1504 25.6547 13.8107 25.9908 15.3798 25.9828C15.6786 25.9828 15.9802 25.9695 16.2846 25.9428C18.3352 25.9268 20.4189 25.2786 22.1456 24.2144C22.9343 23.7262 23.5984 23.0861 24.1297 22.3419C24.4037 21.9658 24.6528 21.5097 24.7773 21.0616C24.935 20.5014 25.6241 20.5494 26.1388 20.4934C26.2107 20.4934 26.2799 20.4961 26.3463 20.5014C26.6701 20.5334 27.2678 20.6535 27.5334 20.3734C28.0565 19.8052 28.0814 18.861 28.0897 18.1408C28.098 17.5247 27.99 16.4604 27.2097 16.2764Z" fill="#72CA8B"/>
<path d="M14.4583 12.0432C14.4583 12.0432 21.6642 12.6514 17.4303 17.9487C17.4303 17.9487 22.1706 24.2863 11.4863 23.19C11.7686 23.222 12.192 23.5341 12.4493 23.6381C13.2214 23.9422 14.0349 24.1663 14.8568 24.2943C16.9322 24.6224 19.4975 24.4223 21.191 23.11C22.8514 21.8217 23.9223 19.4451 23.5404 17.4126C23.4159 16.7164 23.1751 15.9882 22.868 15.348C22.3699 14.3158 21.8386 13.1795 20.8922 12.4513C20.2529 11.9632 19.4477 11.5951 18.6507 11.4271C17.2643 11.139 15.7534 11.5711 14.4583 12.0432Z" fill="#92D6EB"/>
<path d="M15.2721 16.6204C15.2721 17.9808 14.1264 19.0851 12.7151 19.0851C11.3038 19.0851 10.1582 17.9808 10.1582 16.6204C10.1582 15.2601 11.3038 14.1638 12.7151 14.1638C14.1264 14.1638 15.2721 15.2601 15.2721 16.6204Z" fill="white"/>
<path d="M14.2923 16.6203C14.2923 17.4605 13.5867 18.1407 12.715 18.1407C11.8433 18.1407 11.1377 17.4605 11.1377 16.6203C11.1377 15.7881 11.8433 15.1079 12.715 15.1079C13.5867 15.1079 14.2923 15.7881 14.2923 16.6203Z" fill="#72B5CA"/>
<path d="M13.8611 16.6123C13.8611 17.2125 13.3464 17.7086 12.7155 17.7086C12.0928 17.7086 11.5781 17.2125 11.5781 16.6043C11.5781 16.0042 12.0928 15.5081 12.7238 15.5081C13.3464 15.5081 13.8611 16.0042 13.8611 16.6043V16.6123Z" fill="#341212"/>
<path d="M12.4996 15.4762C12.4996 15.7882 12.2423 16.0443 11.9185 16.0443C11.5948 16.0443 11.3291 15.7882 11.3291 15.4762C11.3291 15.1641 11.5948 14.916 11.9185 14.916C12.2423 14.916 12.4996 15.1641 12.4996 15.4762Z" fill="white"/>
<path d="M13.6617 17.3966C13.6617 17.5326 13.5538 17.6446 13.4126 17.6446C13.2715 17.6446 13.1553 17.5326 13.1553 17.3966C13.1553 17.2605 13.2715 17.1565 13.4126 17.1565C13.5538 17.1565 13.6617 17.2605 13.6617 17.3966Z" fill="white"/>
<rect x="1" y="1" width="36" height="36" rx="9" stroke="#03824F" stroke-width="2"/>
<rect x="10" y="31" width="19" height="19" rx="9.5" fill="white"/>
<path fill-rule="evenodd" clip-rule="evenodd" d="M15.7877 36.0377C17.8379 33.9874 21.1621 33.9874 23.2123 36.0377C25.2626 38.0879 25.2626 41.4121 23.2123 43.4623L19.5 47.1746L15.7877 43.4623C13.7374 41.4121 13.7374 38.0879 15.7877 36.0377ZM19.5 41.25C20.3284 41.25 21 40.5784 21 39.75C21 38.9216 20.3284 38.25 19.5 38.25C18.6716 38.25 18 38.9216 18 39.75C18 40.5784 18.6716 41.25 19.5 41.25Z" fill="#DD4224"/>
<defs>
<filter id="filter0_f_368_11151" x="9.3457" y="25.7837" width="19.083" height="9.21631" filterUnits="userSpaceOnUse" color-interpolation-filters="sRGB">
<feFlood flood-opacity="0" result="BackgroundImageFix"/>
<feBlend mode="normal" in="SourceGraphic" in2="BackgroundImageFix" result="shape"/>
<feGaussianBlur stdDeviation="2" result="effect1_foregroundBlur_368_11151"/>
</filter>
</defs>
</svg>
