<svg width="38" height="50" viewBox="0 0 38 50" fill="none" xmlns="http://www.w3.org/2000/svg">
<rect x="1" y="1" width="36" height="36" rx="9" fill="#F2F2F2"/>
<g filter="url(#filter0_f_35_10446)">
<path d="M24.2281 30.3365C24.2281 30.7032 21.9076 31 19.0438 31C16.18 31 13.8672 30.7032 13.8672 30.3365C13.8672 29.9699 16.18 29.6731 19.0438 29.6731C21.9076 29.6731 24.2281 29.9699 24.2281 30.3365Z" fill="#787878"/>
</g>
<g filter="url(#filter1_f_35_10446)">
<path d="M25.0207 29.2951C25.0137 29.6344 22.9507 29.9091 20.3961 29.9091C17.8415 29.9091 15.7715 29.6344 15.7715 29.2951C15.7715 28.9558 17.8415 28.6812 20.3961 28.6812C22.9507 28.6812 25.0137 28.9558 25.0137 29.2951H25.0207Z" fill="#787878"/>
</g>
<path d="M30.8706 14.3336C30.8475 14.3982 30.8244 14.4575 30.8013 14.5113C30.7875 14.5436 30.7737 14.5733 30.7598 14.6002C30.3167 15.5696 29.6452 16.127 29.0567 16.8945C29.6244 17.1207 30.116 17.7104 30.4067 18.4375C30.439 18.5129 30.4667 18.5883 30.4898 18.6637C30.656 19.1484 30.7321 19.6816 30.6975 20.2067C30.6929 20.3252 30.679 20.4356 30.656 20.538C30.6375 20.608 30.6167 20.6726 30.5937 20.7318C30.3306 21.4266 29.6383 21.4993 29.0429 21.4024C28.5791 21.3377 28.1291 21.1519 27.6929 20.9015C27.1321 20.5864 26.4537 20.2633 26.0314 19.6331C25.8791 19.4069 25.7891 19.0838 25.7475 18.7445C25.7383 18.6745 25.7314 18.6018 25.7268 18.5264C25.6991 18.2113 25.706 17.8962 25.7268 17.6377C25.7268 17.6377 25.7268 17.635 25.7268 17.6297C25.7314 17.5812 25.736 17.5273 25.7406 17.4681C25.7683 17.0561 25.7821 16.5067 25.9552 16.1674C25.8929 16.1513 25.8445 16.0624 25.8652 15.9735C25.8698 15.9574 25.8791 15.9385 25.8929 15.917C26.5783 14.9556 27.2983 14.2609 28.1567 13.6146C28.8283 13.1137 29.7975 12.6048 30.5937 12.8229C31.1198 12.9683 31.0437 13.8085 30.8706 14.3336Z" fill="#6A6A6A"/>
<path d="M30.6558 20.538C30.6373 20.608 30.6165 20.6726 30.5934 20.7319C29.7488 20.4734 28.9388 20.0775 28.1219 19.7059C27.4642 19.4151 26.7996 19.1404 26.135 18.8819C26.0058 18.8334 25.8765 18.7876 25.7473 18.7445C25.3112 18.591 24.8681 18.4456 24.4596 18.1952C24.3558 18.1306 24.4458 17.9528 24.5496 18.0175C24.9235 18.2356 25.3181 18.3891 25.7265 18.5264C25.9827 18.6153 26.2389 18.6961 26.4881 18.793C27.0512 19.0138 27.6119 19.2508 28.1704 19.5039C28.9873 19.8755 29.8042 20.2795 30.6558 20.538Z" fill="#E9E9E9"/>
<path d="M30.4895 18.6638C29.5341 18.5183 28.5856 18.2921 27.6372 18.0902C27.0002 17.9528 26.3702 17.767 25.7264 17.6297C25.6526 17.6135 25.5764 17.5974 25.4979 17.5812C25.1933 17.5327 24.7641 17.5004 24.598 17.145C24.5426 17.0238 24.7018 16.9188 24.7572 17.04C24.8749 17.2904 25.3387 17.4035 25.7403 17.4681C25.9479 17.5004 26.1418 17.5327 26.2526 17.557C26.841 17.7105 27.4226 17.8236 28.011 17.9528C28.8072 18.1306 29.6033 18.3164 30.4064 18.4376C30.4387 18.513 30.4664 18.5884 30.4895 18.6638Z" fill="#E9E9E9"/>
<path d="M30.8704 14.3336C30.8473 14.3982 30.8243 14.4575 30.8012 14.5113C30.7873 14.5437 30.7735 14.5733 30.7597 14.6002C30.1297 14.8345 29.4997 15.0688 28.8627 15.295C27.9004 15.6262 26.9243 15.8847 25.9551 16.1675C25.6712 16.2563 25.3805 16.3371 25.0966 16.4341C24.9789 16.4664 24.9305 16.2644 25.0481 16.224C25.3205 16.1378 25.5928 16.0544 25.8651 15.9736C26.9035 15.6666 27.9558 15.3919 28.9804 15.0284C29.6104 14.8022 30.2404 14.5679 30.8704 14.3336Z" fill="#E9E9E9"/>
<path d="M28.3577 9.00978C28.0046 8.84012 27.6654 8.64624 27.3192 8.45235C27.1762 8.37157 27.0308 8.29347 26.8831 8.21807C26.6893 8.11036 26.4931 8.00803 26.2946 7.91109C25.3739 7.46676 24.46 7.20017 23.5254 7.07899C23.2716 7.04668 23.0154 7.02513 22.757 7.01436C22.3324 6.99282 21.8985 6.99551 21.4554 7.02244C19.877 7.12746 18.2778 7.33751 16.7201 7.73336C15.7647 7.98379 14.8301 8.35541 13.9232 8.8482C13.8955 8.86436 13.8747 8.89667 13.8609 8.92899C13.847 8.96938 13.847 9.01785 13.8609 9.05825C13.7155 9.1875 13.5909 9.35716 13.6462 9.55104C13.8193 10.1489 14.3178 10.3508 14.7332 10.5124C16.3462 11.1587 17.9593 11.6111 19.5101 12.5159C20.2301 12.936 20.9154 13.453 21.5316 14.1154C21.857 14.479 22.2862 15.2141 22.7639 15.1737C23.2416 15.1253 23.5254 14.6325 23.7954 14.1397C23.9754 13.8246 24.1485 13.5015 24.3285 13.1864C24.647 12.6209 24.9931 12.1604 25.4154 11.7242C25.8031 11.3203 26.2531 10.8759 26.7239 10.8759C26.8623 10.7144 26.9939 10.674 27.1323 10.6255L27.1531 10.577C27.3262 10.5043 27.4992 10.4235 27.6654 10.3589C27.8592 10.2862 28.8769 10.1569 28.9323 9.76109C28.9877 9.29253 28.6277 9.14711 28.3577 9.00978Z" fill="#6A6A6A"/>
<path d="M23.5252 7.07903C23.0499 7.15443 22.5791 7.25138 22.1129 7.36986C21.2199 7.59606 20.3614 7.85458 19.503 8.21812C18.6791 8.5655 17.7722 8.87248 17.0314 9.42183C16.9276 9.49453 16.8376 9.30873 16.9345 9.23602C17.6891 8.68667 18.603 8.35545 19.4406 8.00807C20.3614 7.63646 21.2891 7.33755 22.2376 7.11943C22.4129 7.08173 22.586 7.04672 22.7568 7.0144C23.0152 7.02518 23.2714 7.04672 23.5252 7.07903Z" fill="#E9E9E9"/>
<path d="M27.354 8.49274C26.5648 8.49274 25.7686 8.51697 24.9863 8.61392C23.9825 8.73509 22.9856 8.92898 21.9887 9.13095C21.241 9.29252 20.514 9.58335 19.7664 9.69645C19.6487 9.7126 19.6556 9.49448 19.7664 9.47833C20.2164 9.4137 20.6387 9.21981 21.0748 9.11479C21.5387 9.00169 22.0094 8.90474 22.4733 8.81588C23.3663 8.63815 24.2594 8.48466 25.1594 8.38771C25.7479 8.33116 26.3502 8.29077 26.9455 8.29077L27.354 8.49274Z" fill="#E9E9E9"/>
<path d="M27.1528 10.5447C26.4421 10.5124 25.7313 10.5231 25.0205 10.577C23.6913 10.6739 22.2929 10.8032 21.0052 11.2071C20.8875 11.2394 20.936 11.4495 21.0536 11.4091C22.3344 11.0132 23.7052 10.9001 25.0205 10.787C25.5882 10.7386 26.1559 10.7224 26.7236 10.7386L27.1528 10.5447Z" fill="#E9E9E9"/>
<path d="M28.6624 25.3204C28.6554 25.2881 28.6416 25.2719 28.6208 25.2477C28.5585 25.1912 28.4962 25.0942 28.427 25.0942C28.2055 24.9326 27.9701 24.8034 27.7278 24.6822C27.2847 24.4641 26.8901 24.1894 26.5024 23.842C26.0385 23.4219 25.6439 22.9938 25.2978 22.3475C25.2909 22.3475 25.2839 22.3152 25.277 22.299C25.2285 22.1859 25.1801 22.1455 25.1385 22.0567C25.1316 22.0486 25.1247 22.0405 25.1247 22.0324C24.9447 21.7174 24.7855 21.3781 24.6401 21.0307C24.5016 20.7075 24.377 20.3682 24.2524 20.037C24.0724 19.5604 23.8786 19.0837 23.5947 18.696C23.1724 18.0981 22.5009 18.0981 21.9332 18.0981C20.4378 18.0981 18.9632 18.1224 17.4886 18.3971C17.2163 18.4455 16.944 18.5048 16.6717 18.5748C15.7163 18.8171 14.7817 19.2049 13.8471 19.6008C13.4248 19.7866 13.0025 19.9481 12.5871 20.1743C12.2063 20.3844 11.9017 20.7398 11.5348 20.966C11.4102 21.0468 11.5071 21.273 11.6248 21.2326C11.5002 21.5881 11.5832 21.9678 11.7494 22.3313C11.8463 22.5414 11.9778 22.7433 12.1094 22.9291C12.2132 23.0746 12.3171 23.2038 12.4209 23.325C12.5663 23.4946 12.7117 23.6481 12.8155 23.7612C13.1063 24.0682 13.404 24.3456 13.7086 24.5933C13.7086 24.5987 13.7086 24.6014 13.7086 24.6014C14.6224 25.3446 15.6055 25.8536 16.6717 26.2252C18.7417 26.9523 20.9778 27.2754 23.1101 26.9684C23.2901 26.9415 23.4701 26.9146 23.6501 26.8877C23.8232 26.8553 23.9893 26.8311 24.1624 26.7988C24.167 26.7988 24.1693 26.7988 24.1693 26.7988C24.9101 26.6695 25.6647 26.5241 26.4055 26.3787C27.0908 26.2494 28.1224 26.2171 28.6416 25.4739C28.6693 25.4335 28.6762 25.3689 28.6624 25.3204Z" fill="#6A6A6A"/>
<path d="M25.2977 22.3152C25.2193 22.2883 25.1431 22.2641 25.0693 22.2425C23.7885 21.8305 22.5908 21.2246 21.3654 20.6349C21.2547 20.5864 21.3031 20.3764 21.4139 20.4329C22.5839 20.9903 23.7262 21.5882 24.9516 21.984C25.0116 22.0002 25.0739 22.019 25.1385 22.0406C25.1893 22.1321 25.2423 22.2237 25.2977 22.3152Z" fill="#E9E9E9"/>
<path d="M28.6625 25.3205C27.6933 25.1993 26.724 25.0781 25.7756 24.8519C23.4217 24.2945 21.0956 23.4058 18.9149 22.2425C18.8041 22.186 18.901 22.0083 19.0048 22.0648C21.1648 23.212 23.491 24.1248 25.8171 24.65C26.6825 24.8438 27.5548 24.9327 28.4271 25.0943C28.4963 25.0943 28.5586 25.1912 28.621 25.2478C28.6417 25.272 28.6556 25.2882 28.6625 25.3205Z" fill="#E9E9E9"/>
<path d="M24.1624 26.7988C23.9893 26.8311 23.8232 26.8554 23.6501 26.8877C23.2994 26.7907 22.9532 26.683 22.6117 26.5645C20.2163 25.7567 18.0909 24.3591 15.8755 23.0503C15.7717 22.9938 15.8686 22.808 15.9725 22.8726C18.2155 24.1894 20.3755 25.6274 22.8194 26.411C23.267 26.5564 23.7147 26.6857 24.1624 26.7988Z" fill="#E9E9E9"/>
<path d="M13.8124 25.482C13.5217 25.0943 13.2586 24.6823 13.0024 24.2622C12.8086 23.9552 12.6217 23.6401 12.4347 23.3331C12.3517 23.2039 12.2663 23.0719 12.1786 22.9373C12.0447 22.7326 11.9063 22.536 11.7632 22.3475C11.4655 21.9436 11.1401 21.5801 10.7663 21.2812C10.6486 21.1842 10.5586 21.3943 10.6417 21.5154C10.6417 21.5316 10.6486 21.5397 10.6486 21.5478C10.6417 21.5801 10.6417 21.6043 10.6555 21.6447C10.8009 22.0648 10.9601 22.493 11.1332 22.913C11.1886 23.0477 11.2463 23.1823 11.3063 23.317C11.8047 24.4965 12.4071 25.6032 13.1201 26.5323C13.4524 26.9523 13.8263 27.4047 14.2486 27.639C14.4355 27.744 14.8647 28.0026 15.0655 27.8248C15.5847 27.3805 14.0063 25.7406 13.8124 25.482Z" fill="#6A6A6A"/>
<path d="M27.1116 15.8038C26.897 15.4241 26.5993 15.3918 26.274 15.3837C26.2532 15.3837 26.2324 15.3999 26.2116 15.3999C25.9832 15.5615 25.7547 15.5049 25.5193 15.5292C24.9863 15.5695 24.737 15.0525 24.564 14.4305C24.4463 14.0265 24.377 13.6145 24.294 13.1944C24.294 13.1944 24.294 13.1917 24.294 13.1864C24.2109 12.7905 24.1278 12.4027 23.9894 12.023C23.6986 11.2152 23.214 10.5689 22.6947 10.0276C21.7671 9.03396 20.6178 8.50077 19.4686 8.24225C17.6132 7.82217 15.6471 8.14531 13.8471 8.95317C13.3279 9.17937 12.8225 9.45404 12.3379 9.76103C11.9017 10.0357 11.4725 10.3508 11.0571 10.7062C9.64481 11.9019 8.41943 13.5418 7.63713 15.5534C7.42944 16.0785 7.2079 16.7086 7.14559 17.3064C7.14559 17.3549 7.14329 17.4034 7.13867 17.4519C7.1479 17.4572 7.15713 17.4626 7.16636 17.468C8.4679 18.0981 11.1748 19.0918 13.5356 17.88C13.5356 17.88 11.2025 19.7785 7.42252 18.801C7.4179 18.7956 7.41329 18.7929 7.40867 18.7929C7.48482 18.9626 7.5679 19.1241 7.66482 19.3019C7.66482 19.3019 7.66713 19.3045 7.67175 19.3099C7.99713 20.2067 8.55789 20.9499 9.24328 21.5477C9.37481 21.6608 9.50635 21.7658 9.63789 21.8708C9.91481 22.1536 10.2056 22.4202 10.4894 22.6787C10.5633 22.7433 10.6371 22.8053 10.711 22.8645C10.9048 23.0207 11.0987 23.1688 11.2925 23.3088C11.8394 23.6966 12.4002 24.0036 12.9886 24.246C13.1363 24.3106 13.284 24.3698 13.4317 24.4237C13.5194 24.4829 13.6117 24.5395 13.7086 24.5933C13.7086 24.5987 13.7086 24.6014 13.7086 24.6014C16.0971 26.0313 19.0048 25.9344 21.2617 24.2298C21.6771 24.0521 22.0717 23.8339 22.4871 23.4866C23.034 23.0342 23.5394 22.4525 23.8024 21.6446C23.9894 21.0711 24.0378 20.4571 24.2524 20.0289C24.4117 19.7219 24.654 19.5119 25.104 19.4877C25.4917 19.4715 25.8309 19.9562 26.184 19.8754C26.274 19.8512 26.3709 19.7704 26.4678 19.6492C27.0493 18.9222 27.6793 16.7813 27.1116 15.8038Z" fill="#434343"/>
<path d="M17.5092 18.397C17.3846 20.7883 16.1107 22.8968 12.1784 22.9372C12.16 22.9426 12.1415 22.9453 12.123 22.9453C11.8092 22.9453 11.4792 22.9345 11.1331 22.913C10.9992 22.9022 10.8607 22.8887 10.7177 22.8726C10.6438 22.8133 10.57 22.7514 10.4961 22.6868C10.2123 22.4363 9.92152 22.1617 9.63768 21.8789C9.50614 21.7739 9.3746 21.6689 9.24999 21.5558C8.55768 20.958 7.99692 20.2066 7.67153 19.3099C7.67153 19.3099 7.66923 19.3072 7.66461 19.3018C7.57461 19.1322 7.49846 18.9706 7.42231 18.801C11.2092 19.7785 13.473 17.88 13.473 17.88C11.0984 19.0918 8.38461 18.0981 7 17.468V17.4518C7 17.4034 7.07615 17.3549 7.08308 17.3064C7.13846 16.7005 7.39461 16.0785 7.6023 15.5453C8.38461 13.5337 9.63076 11.8938 11.05 10.6901C12.3307 10.3669 15.0238 10.2053 16.2146 12.7016C16.8584 14.0508 17.6199 16.3289 17.5092 18.397Z" fill="#6A6A6A"/>
<path d="M17.3502 10.27C17.3502 10.5608 17.1494 10.7951 16.9002 10.7951C16.651 10.7951 16.4502 10.5608 16.4502 10.27C16.4502 9.97915 16.651 9.74487 16.9002 9.74487C17.1494 9.74487 17.3502 9.97915 17.3502 10.27Z" fill="white"/>
<path d="M20.8462 11.4656C20.8462 11.9826 20.4792 12.4108 20.0292 12.4108C19.5862 12.4108 19.2192 11.9826 19.2192 11.4575C19.2192 10.9405 19.5862 10.5123 20.0362 10.5123C20.4792 10.5123 20.8462 10.9405 20.8462 11.4575V11.4656Z" fill="white"/>
<path d="M22.1267 14.4144C22.1267 14.6648 21.9467 14.8748 21.7252 14.8748C21.5106 14.8748 21.3306 14.6648 21.3306 14.4063C21.3306 14.1558 21.5106 13.9458 21.7321 13.9458C21.9467 13.9458 22.1267 14.1558 22.1267 14.4063V14.4144Z" fill="white"/>
<path d="M20.5693 17.7265C20.5693 18.3567 20.1262 18.8737 19.5793 18.8737C19.0393 18.8737 18.5962 18.3567 18.5962 17.7185C18.5962 17.0883 19.0393 16.5713 19.5862 16.5713C20.1262 16.5713 20.5693 17.0883 20.5693 17.7185V17.7265Z" fill="white"/>
<path d="M23.5118 17.6054C23.5118 17.9043 23.3041 18.1466 23.041 18.1466C22.7848 18.1466 22.5771 17.9043 22.5771 17.5973C22.5771 17.2984 22.7848 17.056 23.0479 17.056C23.3041 17.056 23.5118 17.2984 23.5118 17.5973V17.6054Z" fill="white"/>
<path d="M21.4692 20.9741C21.4692 21.5962 21.0331 22.1051 20.5 22.1051C19.9669 22.1051 19.5308 21.5962 19.5308 20.9741C19.5308 20.3521 19.9669 19.8431 20.5 19.8431C21.0331 19.8431 21.4692 20.3521 21.4692 20.9741Z" fill="white"/>
<path d="M18.3195 22.9776C18.3195 23.2523 18.1256 23.4785 17.8833 23.4785C17.6479 23.4785 17.4541 23.2523 17.4541 22.9695C17.4541 22.6948 17.6479 22.4686 17.8903 22.4686C18.1256 22.4686 18.3195 22.6948 18.3195 22.9695V22.9776Z" fill="white"/>
<path d="M15.6262 23.8421C15.6262 24.0521 15.4877 24.2137 15.3077 24.2137C15.1277 24.2137 14.9893 24.0521 14.9893 23.8421C14.9893 23.632 15.1277 23.4705 15.3077 23.4705C15.4877 23.4705 15.6262 23.632 15.6262 23.8421Z" fill="white"/>
<path d="M14.7539 14.6648C14.7539 16.0382 13.7985 17.153 12.6216 17.153C11.4446 17.153 10.4893 16.0382 10.4893 14.6648C10.4893 13.2915 11.4446 12.1847 12.6216 12.1847C13.7985 12.1847 14.7539 13.2915 14.7539 14.6648Z" fill="white"/>
<path d="M13.9369 14.6648C13.9369 15.513 13.3484 16.1997 12.6215 16.1997C11.8946 16.1997 11.3062 15.513 11.3062 14.6648C11.3062 13.8246 11.8946 13.1379 12.6215 13.1379C13.3484 13.1379 13.9369 13.8246 13.9369 14.6648Z" fill="#3E3E3E"/>
<path d="M13.5767 14.6567C13.5767 15.2626 13.1475 15.7635 12.6213 15.7635C12.1021 15.7635 11.6729 15.2626 11.6729 14.6486C11.6729 14.0427 12.1021 13.5419 12.6282 13.5419C13.1475 13.5419 13.5767 14.0427 13.5767 14.6486V14.6567Z" fill="#141414"/>
<path d="M12.4415 13.5096C12.4415 13.8247 12.2269 14.0832 11.9569 14.0832C11.6869 14.0832 11.4653 13.8247 11.4653 13.5096C11.4653 13.1945 11.6869 12.9441 11.9569 12.9441C12.2269 12.9441 12.4415 13.1945 12.4415 13.5096Z" fill="white"/>
<path d="M13.4106 15.4484C13.4106 15.5857 13.3206 15.6988 13.2029 15.6988C13.0852 15.6988 12.9883 15.5857 12.9883 15.4484C12.9883 15.3111 13.0852 15.2061 13.2029 15.2061C13.3206 15.2061 13.4106 15.3111 13.4106 15.4484Z" fill="white"/>
<rect x="9.70703" y="8" width="27.334" height="2" rx="1" transform="rotate(45 9.70703 8)" fill="#141E23"/>
<rect x="1" y="1" width="36" height="36" rx="9" stroke="white" stroke-width="2"/>
<rect x="10" y="31" width="19" height="19" rx="9.5" fill="white"/>
<path fill-rule="evenodd" clip-rule="evenodd" d="M15.7877 36.0377C17.8379 33.9874 21.1621 33.9874 23.2123 36.0377C25.2626 38.0879 25.2626 41.4121 23.2123 43.4623L19.5 47.1746L15.7877 43.4623C13.7374 41.4121 13.7374 38.0879 15.7877 36.0377ZM19.5 41.25C20.3284 41.25 21 40.5784 21 39.75C21 38.9216 20.3284 38.25 19.5 38.25C18.6716 38.25 18 38.9216 18 39.75C18 40.5784 18.6716 41.25 19.5 41.25Z" fill="#0C557E"/>
<defs>
<filter id="filter0_f_35_10446" x="9.86719" y="25.6731" width="18.3608" height="9.3269" filterUnits="userSpaceOnUse" color-interpolation-filters="sRGB">
<feFlood flood-opacity="0" result="BackgroundImageFix"/>
<feBlend mode="normal" in="SourceGraphic" in2="BackgroundImageFix" result="shape"/>
<feGaussianBlur stdDeviation="2" result="effect1_foregroundBlur_35_10446"/>
</filter>
<filter id="filter1_f_35_10446" x="11.7715" y="24.6812" width="17.249" height="9.22791" filterUnits="userSpaceOnUse" color-interpolation-filters="sRGB">
<feFlood flood-opacity="0" result="BackgroundImageFix"/>
<feBlend mode="normal" in="SourceGraphic" in2="BackgroundImageFix" result="shape"/>
<feGaussianBlur stdDeviation="2" result="effect1_foregroundBlur_35_10446"/>
</filter>
</defs>
</svg>
