<svg width="15" height="15" viewBox="0 0 15 15" fill="none" xmlns="http://www.w3.org/2000/svg">
<path d="M1.90174 7.12873C2.70718 6.06085 3.8906 5.26932 5.25401 4.88994C5.82547 3.91106 6.8469 3.18977 8.29131 2.74014C8.62428 2.6371 8.97976 2.73546 9.21374 2.99774C9.32787 3.12272 9.40606 3.27847 9.43947 3.44735C9.47287 3.61623 9.46014 3.79147 9.40273 3.95321C9.26774 4.34664 9.23174 4.67449 9.29924 4.96956C10.1857 5.25526 10.9911 5.72363 11.6526 6.33719L13.1825 4.86184C13.4165 4.64171 13.7539 4.6136 14.0194 4.79627C14.2804 4.97893 14.3884 5.30679 14.2894 5.60654C13.8529 6.98822 13.8529 8.32774 14.2894 9.70942C14.3884 10.0185 14.2804 10.3417 14.0194 10.5244C13.7539 10.707 13.4165 10.6789 13.178 10.4541L11.6391 8.96941C10.7031 9.83588 9.49272 10.412 8.16981 10.6134L8.07982 10.9927C7.99883 11.3159 7.76484 11.5688 7.45886 11.6625C7.31033 11.7077 7.15307 11.7121 7.00243 11.6751C6.8518 11.6382 6.71294 11.5612 6.59942 11.4517L5.63649 10.5384C4.10209 10.2106 2.77918 9.38625 1.90174 8.21065L1.89724 8.20597C1.66776 7.88748 1.66776 7.44722 1.90174 7.12873ZM4.41707 7.66735C4.66455 7.66735 4.87154 7.45658 4.87154 7.19898C4.87154 6.94138 4.66905 6.73062 4.42157 6.73062H4.41707C4.16959 6.73062 3.9671 6.94138 3.9671 7.19898C3.9671 7.45658 4.16959 7.66735 4.41707 7.66735Z" fill="white"/>
<rect x="11.0654" y="0.815918" width="0.9" height="15" rx="0.45" transform="rotate(30 11.0654 0.815918)" fill="white"/>
</svg>
