<svg width="20" height="19" viewBox="0 0 20 19" fill="none" xmlns="http://www.w3.org/2000/svg">
<path d="M19.9961 7.61472C20.0054 7.54359 19.9984 7.47913 19.9754 7.42134C19.9131 7.25463 19.7263 7.14794 19.3597 7.12126C18.5987 7.06125 17.7754 7.57471 17.2151 8.00816C16.4956 8.5683 15.6793 9.2418 15.1604 9.98865C15.0774 10.1154 15.2849 10.2354 15.3749 10.1087C15.3887 10.0887 15.4094 10.0687 15.4233 10.042C15.7346 10.8355 16.0528 11.5957 16.6616 12.2292C17.0905 12.6827 17.9 13.3428 18.5572 13.4162C18.7924 13.4429 18.8962 13.3162 18.8962 13.1161C18.8962 13.0361 18.8892 12.9561 18.8616 12.8627C18.7716 12.5226 18.5226 12.1159 18.232 11.8758C18.4188 11.8625 18.6056 11.8625 18.7993 11.8825C18.9999 11.9025 19.249 11.9091 19.4427 11.8225C19.5741 11.7624 19.6848 11.6824 19.7609 11.5891C19.7978 11.5402 19.8301 11.4868 19.8578 11.429C19.8993 11.3157 19.9131 11.189 19.8924 11.0489C19.7886 10.4221 18.7924 10.022 18.1283 9.88863C18.6471 9.42851 19.927 8.28156 19.9961 7.61472Z" fill="#50915A"/>
<path d="M19.9963 7.61477C19.4567 7.81482 18.924 8.02154 18.4051 8.2616C17.8932 8.50833 17.3328 8.71505 16.9039 9.09514C16.8139 9.17516 16.6756 9.0418 16.7655 8.96178C17.2152 8.56834 17.7756 8.36829 18.3083 8.10156C18.8479 7.83483 19.4082 7.62144 19.9755 7.42139C19.9986 7.47918 20.0055 7.54364 19.9963 7.61477Z" fill="#1FA766"/>
<path d="M19.8578 11.4289C18.8063 11.0222 17.7201 10.4554 16.6063 10.4887C16.4818 10.4954 16.4818 10.6821 16.6063 10.6754C17.2705 10.6554 17.8931 10.9288 18.5157 11.1155C18.9446 11.2489 19.3459 11.4289 19.761 11.589L19.8578 11.4289Z" fill="#1FA766"/>
<path d="M18.8964 13.1161C18.5643 12.8693 18.2461 12.6093 17.8933 12.3959C17.3398 12.0491 16.7518 11.7557 16.1845 11.4223C16.0807 11.3556 16.1776 11.1956 16.2883 11.2623C16.8901 11.6224 17.5473 11.9224 18.1285 12.3225C18.3775 12.4959 18.6196 12.6826 18.8618 12.8627C18.8895 12.956 18.8964 13.036 18.8964 13.1161Z" fill="#1FA766"/>
<path d="M17.941 15.5101C17.4291 15.6101 17.0347 15.8969 16.6612 16.2169C16.6196 16.2525 16.5758 16.2903 16.5297 16.3303C16.3222 16.517 16.1146 16.7104 15.8863 16.8838C15.3398 17.2905 14.7933 17.664 14.1914 17.9707C14.1361 18.0018 14.0784 18.0307 14.0184 18.0574C13.9078 18.1152 13.7948 18.1685 13.6795 18.2174C12.6348 18.6709 11.4588 18.891 10.3034 18.8443L10.0959 18.8309C9.70156 18.8043 9.31415 18.7442 8.94057 18.6509C8.36637 18.5175 7.78525 18.3441 7.20413 18.1308C7.13495 18.1041 7.06807 18.0774 7.00351 18.0507C4.66519 17.1505 2.51367 15.6035 1.81494 13.2028C1.94639 13.1495 2.00173 13.0228 2.00173 12.8828C2.00173 12.8605 1.99943 12.8405 1.99481 12.8227C1.99943 12.7961 1.99943 12.7694 1.99481 12.7427C3.38535 13.3362 4.91425 13.6029 6.44314 13.4829C8.34562 13.3362 9.84684 12.3093 11.611 11.7291C12.9392 11.289 14.5235 11.2757 15.6234 12.2426C16.6127 13.1162 17.0693 14.3831 17.9963 15.3167C18.0586 15.3767 18.0379 15.4968 17.941 15.5101Z" fill="#50915A"/>
<path d="M16.6612 16.2171C16.6197 16.2526 16.5758 16.2904 16.5297 16.3304C16.419 16.1637 16.3083 16.0037 16.1631 15.857C15.7964 15.4769 15.4021 15.1101 15.0008 14.7634C14.0807 13.9765 13.0845 13.1963 12.033 12.5762C11.9292 12.5161 12.026 12.3494 12.1367 12.4161C13.1468 13.0163 14.1153 13.7565 15.0077 14.5166C15.4436 14.8967 15.9278 15.2835 16.3014 15.7236C16.4329 15.877 16.5505 16.0504 16.6612 16.2171Z" fill="#1FA766"/>
<path d="M14.1912 17.9707C14.1358 18.0019 14.0782 18.0308 14.0182 18.0574C13.5962 17.564 13.1327 17.0972 12.6208 16.6904C11.7283 15.9769 10.656 15.6235 9.72901 14.9767C9.63215 14.91 9.72901 14.7433 9.82586 14.8166C10.7667 15.4701 11.8667 15.8235 12.7591 16.5571C13.2849 16.9905 13.7553 17.464 14.1912 17.9707Z" fill="#1FA766"/>
<path d="M10.3036 18.8443C10.2759 18.7732 10.2483 18.7043 10.2206 18.6376C9.98538 18.0308 9.62563 17.4573 9.42501 16.8438C9.20363 16.1503 8.85081 15.1434 8.05523 14.8966C7.9307 14.8566 7.88228 15.0367 7.99989 15.0767C8.79547 15.3167 9.1137 16.457 9.31432 17.1439C9.37659 17.3506 9.52878 17.564 9.62564 17.764C9.79628 18.1152 9.95309 18.4709 10.0961 18.831L10.3036 18.8443Z" fill="#1FA766"/>
<path d="M7.20406 18.1307C7.13488 18.104 7.068 18.0773 7.00344 18.0507C6.94348 17.6906 6.88352 17.3282 6.82357 16.9637C6.71288 16.2902 6.70596 15.41 6.20786 14.8765C6.12484 14.7832 6.25628 14.6498 6.3393 14.7432C6.85816 15.2966 6.88583 16.1368 6.99652 16.8303C7.07262 17.2638 7.1418 17.6972 7.20406 18.1307Z" fill="#1FA766"/>
<path d="M17.4224 5.0007C16.952 4.80731 16.5922 4.41388 16.2532 4.00711C16.2071 3.95376 16.1656 3.90264 16.1287 3.85374C15.9419 3.62701 15.762 3.40029 15.5753 3.21358C15.0564 2.69345 14.5099 2.12664 13.9011 1.67986L13.7212 1.55316C13.313 1.27975 12.8772 1.0597 12.3929 0.933001C11.5213 0.699609 10.5043 0.812971 9.54269 1.04636L9.52885 1.05303L9.17603 1.14639H9.15528C8.65026 1.29309 8.17291 1.4598 7.74399 1.61984C7.18362 1.82656 6.65093 2.06662 6.13899 2.34669L6.09748 2.3667L5.64781 2.62676C4.97675 3.03353 4.35413 3.50698 3.77301 4.05379C3.0051 4.78064 2.30637 5.62085 1.73909 6.50107C1.26866 7.24126 1.00577 8.00145 0.742883 8.78832C0.563013 8.98837 0.43157 9.21509 0.396979 9.46849C0.390061 9.52184 0.417735 9.56852 0.459244 9.58852C0.454632 9.6063 0.447714 9.62186 0.43849 9.6352C0.390064 9.7819 0.625279 9.84192 0.680623 9.70188C0.777476 9.42848 0.867412 9.15508 0.957347 8.88834C1.37935 8.38822 2.09191 7.95477 2.52775 7.69471C3.37176 7.18125 4.31954 6.92785 5.29499 6.76114C7.06602 6.46106 9.0515 6.26101 10.8087 6.73447C12.2823 7.13457 13.3684 8.53492 15.0011 8.18817C15.9558 7.98812 16.5853 7.22792 17.1111 6.46106C17.1618 6.38549 17.2125 6.30991 17.2633 6.23434C17.3878 6.04763 17.5054 5.86758 17.623 5.6942C17.8651 5.33411 17.879 5.18741 17.4224 5.0007Z" fill="#50915A"/>
<path d="M5.64775 2.62675C4.96978 3.43362 4.45093 4.33385 4.33332 5.38078C4.31948 5.50081 4.51319 5.50081 4.52702 5.38078C4.65847 4.20715 5.3226 3.2269 6.13894 2.34668L5.64775 2.62675Z" fill="#1FA766"/>
<path d="M9.15507 1.14641C8.81378 1.46649 8.48632 1.79769 8.1727 2.14C7.4809 2.89352 6.62305 3.68705 6.45702 4.73399C6.43627 4.85402 6.62306 4.90736 6.64381 4.78733C6.80984 3.7204 7.72303 2.91353 8.42175 2.14666C8.77458 1.7599 9.14815 1.39314 9.54248 1.04639L9.15507 1.14641Z" fill="#1FA766"/>
<path d="M13.7209 1.55322C13.1398 1.80662 12.5794 2.1067 12.0398 2.42011C11.0159 3.00025 9.73607 3.47371 9.14111 4.53398C9.08577 4.64067 9.2518 4.73403 9.30715 4.62733C9.88827 3.60041 11.1474 3.15363 12.1366 2.58015C12.697 2.2534 13.285 1.93999 13.9008 1.67992L13.7209 1.55322Z" fill="#1FA766"/>
<path d="M16.253 4.00713C15.8795 4.09382 15.5128 4.18718 15.1462 4.29387C13.9009 4.6673 12.6972 5.16076 11.4657 5.56086C11.3481 5.60087 11.2928 5.42082 11.4104 5.38081C12.6487 4.98071 13.8456 4.46725 15.0977 4.11383C15.439 4.02047 15.7826 3.93378 16.1285 3.85376C16.1654 3.90266 16.2069 3.95379 16.253 4.00713Z" fill="#1FA766"/>
<path d="M17.0762 6.4611C15.2705 6.84786 13.2574 6.72783 11.4587 6.72116C11.3203 6.72116 11.3203 6.53445 11.4587 6.53445C13.2574 6.54112 15.3605 6.67449 17.2076 6.23438L17.0762 6.4611Z" fill="#1FA766"/>
<path d="M16.8414 8.53498C16.454 8.44163 16.1288 8.57499 15.7829 8.74837C15.6722 8.80172 15.5592 8.85507 15.4439 8.90841C15.1188 8.76171 14.8213 8.38828 14.6069 8.15489C14.0603 7.55474 13.6591 6.83455 13.2163 6.16772C12.5799 5.21414 11.9296 4.26057 10.7881 3.82046C8.2353 2.82021 5.43348 3.90715 3.43415 5.48755C1.64928 6.90124 -0.571422 9.29518 0.134223 11.7091C0.166507 11.8158 0.205711 11.9225 0.251831 12.0292C1.35181 11.8425 2.77693 11.3757 3.21277 10.2354C3.21277 10.2354 3.76622 11.8758 0.777604 12.9494C1.19269 13.5096 1.72538 14.0164 2.23732 14.4631C2.60398 14.7899 2.98447 15.11 3.38572 15.39C4.29199 16.3503 5.67561 16.6304 6.98313 16.6237C7.23218 16.6237 7.48354 16.6126 7.7372 16.5904C9.44597 16.577 11.1824 16.0369 12.6214 15.15C13.2786 14.7432 13.832 14.2097 14.2748 13.5896C14.5031 13.2762 14.7106 12.8961 14.8144 12.5227C14.9458 12.0559 15.52 12.0959 15.949 12.0492C16.0089 12.0492 16.0666 12.0514 16.1219 12.0559C16.3917 12.0825 16.8898 12.1826 17.1112 11.9492C17.547 11.4757 17.5678 10.6889 17.5747 10.0887C17.5816 9.57525 17.4917 8.68836 16.8414 8.53498Z" fill="#72CA8B"/>
<path d="M6.21528 5.00732C6.21528 5.00732 12.2202 5.51411 8.69195 9.92856C8.69195 9.92856 12.6422 15.2099 3.7386 14.2963C3.97382 14.323 4.32664 14.5831 4.5411 14.6698C5.18448 14.9232 5.86245 15.1099 6.54734 15.2166C8.27686 15.49 10.4146 15.3233 11.8258 14.2296C13.2095 13.156 14.1019 11.1755 13.7837 9.48178C13.6799 8.90164 13.4793 8.29482 13.2233 7.76135C12.8082 6.90113 12.3655 5.95422 11.5768 5.3474C11.0441 4.94064 10.373 4.63389 9.70891 4.49386C8.55359 4.2538 7.2945 4.61389 6.21528 5.00732Z" fill="#92D6EB"/>
<path d="M6.89337 8.8216C6.89337 9.95522 5.93868 10.8755 4.76261 10.8755C3.58653 10.8755 2.63184 9.95522 2.63184 8.8216C2.63184 7.68798 3.58653 6.77441 4.76261 6.77441C5.93868 6.77441 6.89337 7.68798 6.89337 8.8216Z" fill="white"/>
<path d="M6.07695 8.8216C6.07695 9.52177 5.48891 10.0886 4.76251 10.0886C4.03611 10.0886 3.44807 9.52177 3.44807 8.8216C3.44807 8.12809 4.03611 7.56128 4.76251 7.56128C5.48891 7.56128 6.07695 8.12809 6.07695 8.8216Z" fill="#72B5CA"/>
<path d="M5.71758 8.81501C5.71758 9.31513 5.28866 9.72857 4.76289 9.72857C4.24403 9.72857 3.81511 9.31513 3.81511 8.80834C3.81511 8.30821 4.24403 7.89478 4.7698 7.89478C5.28866 7.89478 5.71758 8.30821 5.71758 8.80834V8.81501Z" fill="#341212"/>
<path d="M4.58304 7.86815C4.58304 8.12822 4.36858 8.34161 4.09877 8.34161C3.82897 8.34161 3.60759 8.12822 3.60759 7.86815C3.60759 7.60809 3.82897 7.40137 4.09877 7.40137C4.36858 7.40137 4.58304 7.60809 4.58304 7.86815Z" fill="white"/>
<path d="M5.5514 9.46836C5.5514 9.58172 5.46146 9.67508 5.34385 9.67508C5.22625 9.67508 5.12939 9.58172 5.12939 9.46836C5.12939 9.355 5.22625 9.26831 5.34385 9.26831C5.46146 9.26831 5.5514 9.355 5.5514 9.46836Z" fill="white"/>
</svg>
