<svg width="48" height="48" viewBox="0 0 48 48" fill="none" xmlns="http://www.w3.org/2000/svg">
<path fill-rule="evenodd" clip-rule="evenodd" d="M15.6 15.6C15.6 14.9373 16.1373 14.4 16.8 14.4H31.2C31.8627 14.4 32.4 14.9373 32.4 15.6V19.2C32.4 19.5183 32.2736 19.8235 32.0485 20.0485L26.4 25.6971V30C26.4 30.3183 26.2736 30.6235 26.0485 30.8485L23.6485 33.2485C23.3053 33.5917 22.7892 33.6944 22.3408 33.5087C21.8924 33.3229 21.6 32.8853 21.6 32.4V25.6971L15.9515 20.0485C15.7264 19.8235 15.6 19.5183 15.6 19.2V15.6Z" fill="#DD4224"/>
<rect x="1" y="1" width="46" height="46" rx="23" stroke="#DD4224" stroke-width="2"/>
</svg>
