<svg width="15" height="15" viewBox="0 0 15 15" fill="none" xmlns="http://www.w3.org/2000/svg">
<path d="M1.63904 7.42609C2.44449 6.35822 3.62791 5.56668 4.99132 5.1873C5.56278 4.20842 6.58421 3.48714 8.02861 3.0375C8.36159 2.93446 8.71706 3.03282 8.95105 3.29511C9.06517 3.42008 9.14337 3.57584 9.17677 3.74472C9.21017 3.9136 9.19745 4.08884 9.14004 4.25057C9.00504 4.644 8.96905 4.97185 9.03654 5.26693C9.92298 5.55263 10.7284 6.02099 11.3899 6.63455L12.9198 5.1592C13.1538 4.93907 13.4912 4.91097 13.7567 5.09363C14.0177 5.27629 14.1257 5.60415 14.0267 5.9039C13.5902 7.28558 13.5902 8.62511 14.0267 10.0068C14.1257 10.3159 14.0177 10.6391 13.7567 10.8217C13.4912 11.0044 13.1538 10.9763 12.9153 10.7515L11.3764 9.26677C10.4404 10.1332 9.23003 10.7093 7.90712 10.9107L7.81712 11.2901C7.73613 11.6133 7.50215 11.8662 7.19617 11.9599C7.04763 12.0051 6.89037 12.0094 6.73974 11.9725C6.58911 11.9355 6.45025 11.8586 6.33673 11.7491L5.37379 10.8358C3.83939 10.5079 2.51648 9.68361 1.63904 8.50802L1.63454 8.50333C1.40506 8.18484 1.40506 7.74458 1.63904 7.42609ZM4.15437 7.96471C4.40186 7.96471 4.60884 7.75395 4.60884 7.49635C4.60884 7.23874 4.40636 7.02798 4.15887 7.02798H4.15437C3.90689 7.02798 3.7044 7.23874 3.7044 7.49635C3.7044 7.75395 3.90689 7.96471 4.15437 7.96471Z" fill="white"/>
</svg>
