<svg width="48" height="48" viewBox="0 0 48 48" fill="none" xmlns="http://www.w3.org/2000/svg">
<rect x="1" y="1" width="46" height="46" rx="23" fill="white"/>
<path d="M18.414 17.2139C21.4991 14.1287 26.5011 14.1287 29.5862 17.2139C32.6714 20.299 32.6714 25.301 29.5862 28.3861L24.0001 33.9723L18.414 28.3861C15.3288 25.301 15.3288 20.299 18.414 17.2139ZM24.0001 25.7C25.6017 25.7 26.9001 24.4016 26.9001 22.8C26.9001 21.1984 25.6017 19.9 24.0001 19.9C22.3985 19.9 21.1001 21.1984 21.1001 22.8C21.1001 24.4016 22.3985 25.7 24.0001 25.7Z" fill="#DD4224" stroke="#DD4224"/>
<rect x="1" y="1" width="46" height="46" rx="23" stroke="#DD4224" stroke-width="2"/>
</svg>
