<svg width="165" height="145" viewBox="0 0 165 145" fill="none" xmlns="http://www.w3.org/2000/svg">
<path d="M84.8926 4.53467H80.1073C38.5772 4.53467 4.92773 38.2981 4.92773 79.9499V143.133H160.072V79.9499C160.072 38.2981 126.423 4.53467 84.8926 4.53467Z" fill="#F2F2F2"/>
<path d="M29.9938 84.618C29.0823 84.618 28.2657 84.961 27.6581 85.5517C27.696 85.2722 27.715 84.9928 27.715 84.7133C27.715 81.2265 24.9236 78.4255 21.4485 78.4255C18.1253 78.4255 15.4098 81.0169 15.2009 84.3132C14.4793 83.6273 13.5109 83.2081 12.4285 83.2081C10.1687 83.2081 8.3457 85.0372 8.3457 87.2856C8.3457 89.553 10.1687 91.3822 12.4285 91.3822H29.9938C31.8547 91.3822 33.3549 89.8579 33.3549 87.9906C33.3549 86.1233 31.8547 84.618 29.9938 84.618Z" fill="white"/>
<path d="M124.049 73.7387C125.416 73.7387 126.65 74.2722 127.562 75.1487C127.511 74.7295 127.486 74.3103 127.486 73.8912C127.486 68.6513 131.702 64.4214 136.905 64.4214C141.918 64.4214 146.02 68.3274 146.323 73.2814C147.425 72.2525 148.887 71.6238 150.52 71.6238C153.9 71.6238 156.654 74.3866 156.654 77.7782C156.654 81.1697 153.9 83.9326 150.52 83.9326H124.049C121.257 83.9326 118.979 81.6461 118.979 78.8261C118.979 76.0252 121.257 73.7387 124.049 73.7387Z" fill="white"/>
<path d="M164.896 106.702C165.01 106.397 165.086 105.997 164.82 105.844C164.63 105.711 164.364 105.806 164.155 105.901C159.047 108.34 155.61 113.237 152.553 118.02C153.559 115.085 154.186 111.999 154.395 108.893C151.831 110.589 150.046 113.275 148.926 116.152C147.786 119.01 147.255 122.059 146.723 125.108C147.141 122.116 146.381 118.972 144.672 116.495C141.387 120.439 140.399 126.175 142.146 130.995L143.647 133.911C149.04 133.053 154.186 130.614 158.268 126.956C158.914 126.384 159.598 125.622 159.446 124.746C156.275 124.993 153.141 125.87 150.274 127.318C155.173 124.917 160.243 122.383 163.548 118.039C164.231 117.143 164.858 115.924 164.307 114.933C161.326 115.962 158.515 117.505 156.028 119.487C159.902 115.962 163.054 111.598 164.896 106.702Z" fill="#6EC116"/>
<path d="M144.159 98.4132C144.121 98.1655 144.007 97.8796 143.761 97.8606C143.571 97.8606 143.438 98.0321 143.343 98.1845C140.874 101.995 140.551 106.759 140.456 111.313C139.925 108.874 139.07 106.511 137.931 104.301C136.886 106.53 136.791 109.121 137.209 111.541C137.627 113.961 138.519 116.286 139.431 118.572C138.462 116.362 136.639 114.533 134.437 113.561C133.848 117.619 135.557 121.945 138.747 124.498L140.988 125.87C144.311 123.031 146.799 119.201 148.071 115.009C148.261 114.342 148.413 113.542 147.957 113.008C145.887 114.495 144.121 116.419 142.773 118.591C145.109 114.914 147.501 111.065 147.976 106.721C148.071 105.825 147.976 104.72 147.198 104.282C145.584 106.225 144.311 108.474 143.438 110.836C144.615 106.835 144.957 102.529 144.159 98.4132Z" fill="#FEC803"/>
<path d="M129.898 119.906C130.563 117.905 132.727 116.705 134.835 116.495C138.272 116.152 141.804 118.096 143.362 121.183C144.862 124.136 144.558 127.661 144.216 130.957C146.875 128.899 151.052 129.947 153.141 132.596C155.23 135.225 155.515 138.922 154.774 142.218H129.898V119.906Z" fill="#141E23"/>
<path d="M0.104442 106.702C-0.00949491 106.397 -0.0854527 105.997 0.180401 105.844C0.370296 105.711 0.636149 105.806 0.845034 105.901C5.95322 108.34 9.39032 113.237 12.4476 118.02C11.4412 115.085 10.8145 111.999 10.6057 108.893C13.1692 110.589 14.9543 113.275 16.0746 116.152C17.214 119.01 17.7457 122.059 18.2774 125.108C17.8597 122.116 18.6192 118.972 20.3283 116.495C23.6135 120.439 24.6009 126.175 22.8539 130.995L21.3537 133.911C15.9607 133.053 10.8145 130.614 6.73179 126.956C6.08614 126.384 5.40252 125.622 5.55444 124.746C8.72569 124.993 11.859 125.87 14.7264 127.318C9.82708 124.917 4.75688 122.383 1.4527 118.039C0.769075 117.143 0.142421 115.924 0.693117 114.933C3.67447 115.962 6.48492 117.505 8.97255 119.487C5.09869 115.962 1.94643 111.598 0.104442 106.702Z" fill="#6EC116"/>
<path d="M20.8409 98.4132C20.8788 98.1655 20.9928 97.8796 21.2396 97.8606C21.4295 97.8606 21.5625 98.0321 21.6574 98.1845C24.126 101.995 24.4489 106.759 24.5438 111.313C25.0755 108.874 25.93 106.511 27.0694 104.301C28.1138 106.53 28.2088 109.121 27.791 111.541C27.3732 113.961 26.4807 116.286 25.5692 118.572C26.5377 116.362 28.3607 114.533 30.5635 113.561C31.1522 117.619 29.4431 121.945 26.2529 124.498L24.0121 125.87C20.6889 123.031 18.2013 119.201 16.929 115.009C16.7391 114.342 16.5872 113.542 17.0429 113.008C19.1128 114.495 20.8788 116.419 22.2271 118.591C19.8914 114.914 17.4987 111.065 17.024 106.721C16.929 105.825 17.024 104.72 17.8025 104.282C19.4166 106.225 20.6889 108.474 21.5625 110.836C20.3851 106.835 20.0433 102.529 20.8409 98.4132Z" fill="#FEC803"/>
<path d="M35.1022 119.906C34.4376 117.905 32.2728 116.705 30.1649 116.495C26.7278 116.152 23.1958 118.096 21.6386 121.183C20.1385 124.136 20.4423 127.661 20.7841 130.957C18.1256 128.899 13.9479 129.947 11.859 132.596C9.77017 135.225 9.48533 138.922 10.2259 142.218H35.1022V119.906Z" fill="#141E23"/>
<path d="M63.4157 26.9802H59.314V33.4776H63.4157V26.9802Z" fill="#09777F"/>
<path d="M109.218 26.9802H105.117V33.4776H109.218V26.9802Z" fill="#09777F"/>
<path d="M118.979 28.1616H49.5532V0H118.979V28.1616Z" fill="#E66D00"/>
<path d="M115.2 26.3133H53.2559C53.2559 25.2654 52.4014 24.408 51.3569 24.408V3.71545C52.4014 3.71545 53.2559 2.85802 53.2559 1.81006H115.2C115.2 2.85802 116.054 3.71545 117.099 3.71545V24.408C116.054 24.408 115.2 25.2654 115.2 26.3133Z" fill="#FEC803"/>
<path d="M132.746 48.3586H32.2539V141.265H132.746V48.3586Z" fill="#0C557E"/>
<path d="M52.0599 62.7441H38.8052V67.1837H52.0599V62.7441Z" fill="#2C97FB"/>
<path d="M67.7073 62.7439H54.4526V67.1835H67.7073V62.7439Z" fill="#2C97FB"/>
<path d="M127.486 62.7439H114.25V67.1835H127.486V62.7439Z" fill="#2C97FB"/>
<path d="M59.8836 56.8948H46.6289V61.3153H59.8836V56.8948Z" fill="#2C97FB"/>
<path d="M32.2537 60.9152C28.3039 60.9152 25.0757 57.6951 25.0757 53.7129V52.9126H39.4318V53.7129C39.4318 57.6951 36.2225 60.9152 32.2537 60.9152Z" fill="#DD4224"/>
<path d="M46.6097 60.9152C42.6409 60.9152 39.4316 57.6951 39.4316 53.7129V52.9126H53.7877V53.7129C53.7877 57.6951 50.5785 60.9152 46.6097 60.9152Z" fill="#F4CE48"/>
<path d="M60.9656 60.9152C56.9968 60.9152 53.7876 57.6951 53.7876 53.7129V52.9126H68.1437V53.7129C68.1437 57.6951 64.9345 60.9152 60.9656 60.9152Z" fill="#DD4224"/>
<path d="M75.3221 60.9152C71.3533 60.9152 68.144 57.6951 68.144 53.7129V52.9126H82.5001V53.7129C82.5001 57.6951 79.2909 60.9152 75.3221 60.9152Z" fill="#F4CE48"/>
<path d="M89.678 60.9152C85.7092 60.9152 82.5 57.6951 82.5 53.7129V52.9126H96.8561V53.7129C96.8561 57.6951 93.6468 60.9152 89.678 60.9152Z" fill="#DD4224"/>
<path d="M104.034 60.9152C100.065 60.9152 96.856 57.6951 96.856 53.7129V52.9126H111.212V53.7129C111.212 57.6951 108.003 60.9152 104.034 60.9152Z" fill="#F4CE48"/>
<path d="M118.39 60.9152C114.422 60.9152 111.212 57.6951 111.212 53.7129V52.9126H125.568V53.7129C125.568 57.6951 122.359 60.9152 118.39 60.9152Z" fill="#DD4224"/>
<path d="M132.746 60.9152C128.778 60.9152 125.568 57.6951 125.568 53.7129V52.9126H139.924V53.7129C139.924 57.6951 136.696 60.9152 132.746 60.9152Z" fill="#F4CE48"/>
<path d="M54.2436 32.7156H44.8058L25.0757 52.9127H39.4318L54.2436 32.7156Z" fill="#F4CE48"/>
<path d="M63.6623 32.7156H54.2435L39.4316 52.9127H53.7877L63.6623 32.7156Z" fill="#DD4224"/>
<path d="M73.081 32.7156H63.6622L53.7876 52.9127H68.1437L73.081 32.7156Z" fill="#F4CE48"/>
<path d="M82.5001 32.7156H73.0813L68.144 52.9127H82.5001V32.7156Z" fill="#DD4224"/>
<path d="M91.9188 32.7156H82.5V52.9127H96.8561L91.9188 32.7156Z" fill="#F4CE48"/>
<path d="M101.338 32.7156H91.9189L96.8562 52.9127H111.212L101.338 32.7156Z" fill="#DD4224"/>
<path d="M110.756 32.7156H101.337L111.212 52.9127H125.568L110.756 32.7156Z" fill="#F4CE48"/>
<path d="M120.194 32.7156H110.756L125.568 52.9127H139.924L120.194 32.7156Z" fill="#DD4224"/>
<path d="M74.2776 70.4424H38.8052V139.398H74.2776V70.4424Z" fill="#141E23"/>
<path d="M72.113 73.2241V136.597H40.9702V73.2241H72.113Z" fill="#4593BF"/>
<path d="M72.1131 78.4255V93.4972L58.2317 136.597H53.9971L72.1131 78.4255Z" fill="white"/>
<path d="M69.2456 73.2241L45.5657 136.597H40.9702V128.061L60.3205 73.2241H69.2456Z" fill="white"/>
<path d="M74.2776 106.549H38.8052V103.291H74.2776V106.549Z" fill="#141E23"/>
<path d="M73.0433 112.418H64.1372V104.91H73.0433V112.418Z" fill="#141E23"/>
<path d="M70.2897 108.664C70.2897 109.617 69.5301 110.379 68.5806 110.379C67.6502 110.379 66.8716 109.617 66.8716 108.664C66.8716 107.712 67.6502 106.949 68.5806 106.949C69.5301 106.949 70.2897 107.712 70.2897 108.664Z" fill="#2C97FB"/>
<path d="M77.4677 136.597H35.6147V141.266H77.4677V136.597Z" fill="#2C97FB"/>
<path d="M127.486 112.418H79.9365V70.4424H127.486V112.418Z" fill="#141E23"/>
<path d="M125.264 72.405V110.456H82.1582V72.405H125.264Z" fill="#4593BF"/>
<path d="M119.796 72.405L107.548 110.456H103.161L115.011 72.405H119.796Z" fill="white"/>
<path d="M109.75 72.405L95.5272 110.456H87.6655L101.091 72.405H109.75Z" fill="white"/>
<path d="M113.605 83.7991L105.458 77.9496C104.623 77.3589 103.503 77.3589 102.667 77.9496L94.5205 83.7991" stroke="#2C97FB" stroke-width="0.377135"/>
<path d="M116.662 82.1414H90.7606C89.4883 82.1414 88.4438 83.1703 88.4438 84.4659V98.3943C88.4438 99.6709 89.4883 100.719 90.7606 100.719H116.662C117.935 100.719 118.979 99.6709 118.979 98.3943V84.4659C118.979 83.1703 117.935 82.1414 116.662 82.1414Z" fill="#DD4224"/>
<path d="M129.727 116.838H77.6953V112.418H129.727V116.838Z" fill="#2C97FB"/>
<path d="M102.515 130.233H89.2603V134.654H102.515V130.233Z" fill="#2C97FB"/>
<path d="M118.143 130.234H104.908V134.654H118.143V130.234Z" fill="#2C97FB"/>
<path d="M110.32 124.365H97.084V128.785H110.32V124.365Z" fill="#2C97FB"/>
<path d="M161.876 145H3.12367C2.09824 145 1.2627 144.162 1.2627 143.133C1.2627 142.104 2.09824 141.265 3.12367 141.265H161.876C162.902 141.265 163.737 142.104 163.737 143.133C163.737 144.162 162.902 145 161.876 145Z" fill="#141E23"/>
<path d="M68.9137 10.8024C68.8602 10.2622 68.6303 9.84258 68.224 9.54347C67.8178 9.24437 67.2665 9.09482 66.57 9.09482C66.0968 9.09482 65.6973 9.16179 65.3714 9.29571C65.0455 9.42517 64.7955 9.60597 64.6214 9.83811C64.4518 10.0702 64.367 10.3336 64.367 10.6283C64.358 10.8738 64.4094 11.0881 64.521 11.2711C64.637 11.4541 64.7955 11.6126 64.9964 11.7466C65.1973 11.876 65.4294 11.9899 65.6928 12.0881C65.9562 12.1818 66.2375 12.2622 66.5366 12.3291L67.7687 12.6238C68.3669 12.7577 68.916 12.9363 69.416 13.1595C69.916 13.3827 70.349 13.6572 70.715 13.9831C71.0811 14.309 71.3646 14.6929 71.5655 15.1349C71.7708 15.5768 71.8757 16.0835 71.8802 16.6549C71.8757 17.4942 71.6615 18.2219 71.2374 18.8379C70.8177 19.4495 70.2106 19.925 69.416 20.2642C68.6258 20.5991 67.6727 20.7665 66.5567 20.7665C65.4495 20.7665 64.4853 20.5968 63.6639 20.2575C62.8469 19.9183 62.2085 19.416 61.7487 18.7509C61.2934 18.0812 61.0545 17.2531 61.0322 16.2666H63.838C63.8692 16.7264 64.0009 17.1103 64.233 17.4183C64.4696 17.7219 64.7844 17.9518 65.1772 18.108C65.5745 18.2598 66.0232 18.3357 66.5232 18.3357C67.0142 18.3357 67.4406 18.2643 67.8022 18.1214C68.1682 17.9786 68.4517 17.7799 68.6526 17.5255C68.8535 17.271 68.9539 16.9786 68.9539 16.6482C68.9539 16.3402 68.8624 16.0813 68.6794 15.8715C68.5008 15.6617 68.2374 15.4831 67.8892 15.3358C67.5455 15.1884 67.1236 15.0545 66.6236 14.934L65.1303 14.559C63.9741 14.2778 63.0612 13.838 62.3916 13.2398C61.7219 12.6416 61.3893 11.8358 61.3938 10.8225C61.3893 9.99213 61.6103 9.26669 62.0567 8.64617C62.5076 8.02565 63.1259 7.54128 63.9116 7.19308C64.6973 6.84487 65.5902 6.67077 66.5901 6.67077C67.608 6.67077 68.4963 6.84487 69.2553 7.19308C70.0186 7.54128 70.6124 8.02565 71.0365 8.64617C71.4606 9.26669 71.6793 9.98543 71.6927 10.8024H68.9137ZM79.2478 10.2868V12.4296H73.0537V10.2868H79.2478ZM74.4599 7.82253H77.3126V17.4116C77.3126 17.675 77.3527 17.8804 77.4331 18.0277C77.5135 18.1705 77.6251 18.271 77.7679 18.329C77.9152 18.387 78.0849 18.4161 78.2768 18.4161C78.4108 18.4161 78.5447 18.4049 78.6786 18.3826C78.8125 18.3558 78.9152 18.3357 78.9866 18.3223L79.4353 20.445C79.2924 20.4897 79.0915 20.541 78.8326 20.5991C78.5737 20.6615 78.259 20.6995 77.8884 20.7129C77.201 20.7397 76.5983 20.6482 76.0805 20.4383C75.5671 20.2285 75.1675 19.9026 74.8818 19.4607C74.5961 19.0187 74.4555 18.4607 74.4599 17.7866V7.82253ZM85.6428 20.7732C84.6026 20.7732 83.7031 20.5522 82.9441 20.1102C82.1897 19.6638 81.6071 19.0433 81.1964 18.2487C80.7857 17.4496 80.5804 16.5232 80.5804 15.4697C80.5804 14.4072 80.7857 13.4787 81.1964 12.684C81.6071 11.8849 82.1897 11.2644 82.9441 10.8225C83.7031 10.376 84.6026 10.1528 85.6428 10.1528C86.6829 10.1528 87.5802 10.376 88.3347 10.8225C89.0936 11.2644 89.6784 11.8849 90.0891 12.684C90.4998 13.4787 90.7052 14.4072 90.7052 15.4697C90.7052 16.5232 90.4998 17.4496 90.0891 18.2487C89.6784 19.0433 89.0936 19.6638 88.3347 20.1102C87.5802 20.5522 86.6829 20.7732 85.6428 20.7732ZM85.6561 18.5634C86.1294 18.5634 86.5244 18.4295 86.8414 18.1616C87.1583 17.8893 87.3972 17.5188 87.5579 17.05C87.7231 16.5813 87.8057 16.0478 87.8057 15.4496C87.8057 14.8514 87.7231 14.3179 87.5579 13.8492C87.3972 13.3804 87.1583 13.0099 86.8414 12.7376C86.5244 12.4653 86.1294 12.3291 85.6561 12.3291C85.1785 12.3291 84.7767 12.4653 84.4508 12.7376C84.1294 13.0099 83.8861 13.3804 83.7209 13.8492C83.5602 14.3179 83.4799 14.8514 83.4799 15.4496C83.4799 16.0478 83.5602 16.5813 83.7209 17.05C83.8861 17.5188 84.1294 17.8893 84.4508 18.1616C84.7767 18.4295 85.1785 18.5634 85.6561 18.5634ZM92.56 20.5723V10.2868H95.3256V12.0814H95.4327C95.6202 11.443 95.935 10.9609 96.3769 10.635C96.8189 10.3046 97.3278 10.1394 97.9037 10.1394C98.0465 10.1394 98.2005 10.1484 98.3657 10.1662C98.5309 10.1841 98.676 10.2086 98.801 10.2399V12.7711C98.667 12.7309 98.4818 12.6952 98.2452 12.6639C98.0086 12.6327 97.7921 12.6171 97.5956 12.6171C97.176 12.6171 96.801 12.7086 96.4707 12.8916C96.1448 13.0702 95.8858 13.3202 95.6939 13.6416C95.5064 13.963 95.4126 14.3336 95.4126 14.7532V20.5723H92.56ZM104.484 20.7732C103.426 20.7732 102.516 20.5589 101.752 20.1303C100.993 19.6973 100.409 19.0857 99.9979 18.2955C99.5872 17.5009 99.3819 16.5612 99.3819 15.4764C99.3819 14.4184 99.5872 13.4898 99.9979 12.6907C100.409 11.8916 100.987 11.2689 101.732 10.8225C102.482 10.376 103.362 10.1528 104.371 10.1528C105.049 10.1528 105.681 10.2622 106.266 10.481C106.855 10.6952 107.368 11.0189 107.806 11.4519C108.248 11.8849 108.591 12.4296 108.837 13.0858C109.083 13.7376 109.205 14.501 109.205 15.3759V16.1594H100.52V14.3916H106.52C106.52 13.9809 106.431 13.6171 106.252 13.3001C106.074 12.9831 105.826 12.7354 105.509 12.5568C105.196 12.3738 104.833 12.2823 104.417 12.2823C103.984 12.2823 103.601 12.3827 103.266 12.5836C102.935 12.78 102.676 13.0456 102.489 13.3804C102.301 13.7108 102.205 14.0791 102.201 14.4853V16.1661C102.201 16.675 102.295 17.1147 102.482 17.4853C102.674 17.8558 102.944 18.1415 103.293 18.3424C103.641 18.5433 104.054 18.6437 104.531 18.6437C104.848 18.6437 105.138 18.5991 105.402 18.5098C105.665 18.4205 105.891 18.2866 106.078 18.108C106.266 17.9295 106.409 17.7107 106.507 17.4518L109.145 17.6259C109.011 18.2598 108.737 18.8134 108.321 19.2866C107.911 19.7553 107.379 20.1214 106.728 20.3848C106.08 20.6437 105.333 20.7732 104.484 20.7732Z" fill="white"/>
</svg>
