<svg width="12" height="13" viewBox="0 0 12 13" fill="none" xmlns="http://www.w3.org/2000/svg">
<path d="M10.7545 2.07028C10.7254 2.00004 10.6824 1.93419 10.6255 1.87696C10.6247 1.87611 10.6239 1.87526 10.623 1.87442C10.5145 1.76658 10.3651 1.69995 10.2 1.69995H7.80001C7.46864 1.69995 7.20001 1.96858 7.20001 2.29995C7.20001 2.63132 7.46864 2.89995 7.80001 2.89995H8.75148L6.77575 4.87569C6.54143 5.11 6.54143 5.4899 6.77575 5.72422C7.01006 5.95853 7.38996 5.95853 7.62428 5.72422L9.60001 3.74848V4.69995C9.60001 5.03132 9.86864 5.29995 10.2 5.29995C10.5314 5.29995 10.8 5.03132 10.8 4.69995V2.29995C10.8 2.2186 10.7838 2.14102 10.7545 2.07028Z" fill="#0C557E"/>
<path d="M1.20001 2.29995C1.20001 1.96858 1.46864 1.69995 1.80001 1.69995H3.09174C3.38504 1.69995 3.63535 1.912 3.68357 2.20131L4.12716 4.86284C4.17046 5.12266 4.03925 5.38033 3.80365 5.49813L2.87477 5.96257C3.54455 7.62694 4.87302 8.95542 6.53739 9.6252L7.00183 8.69631C7.11963 8.46072 7.37731 8.3295 7.63713 8.3728L10.2987 8.81639C10.588 8.86461 10.8 9.11492 10.8 9.40823V10.7C10.8 11.0313 10.5314 11.3 10.2 11.3H9.00001C4.69219 11.3 1.20001 7.80777 1.20001 3.49995V2.29995Z" fill="#0C557E"/>
</svg>
