<svg width="57" height="56" viewBox="0 0 57 56" fill="none" xmlns="http://www.w3.org/2000/svg">
<rect x="4.5" y="4" width="48" height="48" rx="24" fill="#E9F0F3"/>
<mask id="mask0_35_4786" style="mask-type:alpha" maskUnits="userSpaceOnUse" x="16" y="16" width="24" height="24">
<rect x="16" y="16" width="24" height="24" fill="#D9D9D9"/>
</mask>
<g mask="url(#mask0_35_4786)">
<path d="M37.6827 25.5703L36.2363 21.1388C36.1298 20.8097 35.9248 20.5232 35.6503 20.3201C35.3758 20.117 35.0457 20.0076 34.707 20.0073H21.2929C20.9542 20.0076 20.6241 20.117 20.3496 20.3201C20.0751 20.5232 19.87 20.8097 19.7636 21.1388L18.3171 25.5703C18.1699 26.0266 18.0953 26.5042 18.096 26.9847V27.6541C18.0852 28.4294 18.3534 29.1816 18.8495 29.7675C19.3456 30.3535 20.0349 30.7322 20.7862 30.8317C21.203 30.8756 21.6243 30.8294 22.0226 30.6963C22.4209 30.5631 22.7875 30.3458 23.0986 30.0585C23.2041 29.9689 23.3026 29.8712 23.3935 29.7662C23.6752 30.1099 24.0279 30.3854 24.4262 30.5728C24.8244 30.7603 25.2584 30.8552 25.6967 30.8505C26.1345 30.8519 26.5674 30.7556 26.9652 30.5684C27.363 30.3811 27.7161 30.1074 27.9999 29.7662C28.2837 30.1123 28.6394 30.3893 29.041 30.5769C29.4427 30.7645 29.8802 30.858 30.3216 30.8505C30.7577 30.8462 31.1877 30.7454 31.582 30.555C31.9764 30.3646 32.3259 30.089 32.6064 29.7473C32.6975 29.8579 32.796 29.9619 32.9012 30.0585C33.212 30.3463 33.5786 30.5639 33.977 30.6971C34.3754 30.8303 34.7968 30.8762 35.2137 30.8317C35.965 30.7322 36.6543 30.3535 37.1504 29.7675C37.6464 29.1816 37.9146 28.4294 37.9038 27.6541V26.9847C37.9046 26.5042 37.8299 26.0266 37.6827 25.5703Z" fill="#141E23"/>
<path d="M25.2984 34.818H30.7007C30.7724 34.818 30.8411 34.8441 30.8917 34.8905C30.9424 34.937 30.9709 34.9999 30.9709 35.0656V39.7701H25.0283V35.0656C25.0283 34.9999 25.0568 34.937 25.1074 34.8905C25.1581 34.8441 25.2268 34.818 25.2984 34.818Z" fill="#DD4224"/>
<circle cx="28.0002" cy="21.9425" r="5.94254" fill="#E2EBF0"/>
<path d="M31.5015 18.4407C30.8089 17.7482 29.9265 17.2766 28.9659 17.0856C28.0053 16.8946 27.0096 16.9927 26.1048 17.3675C25.1999 17.7423 24.4265 18.377 23.8824 19.1914C23.3383 20.0058 23.0479 20.9632 23.0479 21.9426C23.0479 22.922 23.3383 23.8794 23.8824 24.6938C24.4265 25.5081 25.1999 26.1429 26.1048 26.5177C27.0096 26.8925 28.0053 26.9906 28.9659 26.7996C29.9265 26.6086 30.8089 26.137 31.5015 25.4444C31.9614 24.9846 32.3262 24.4387 32.5751 23.8378C32.824 23.237 32.9521 22.593 32.9521 21.9426C32.9521 21.2922 32.824 20.6482 32.5751 20.0474C32.3262 19.4465 31.9614 18.9006 31.5015 18.4407ZM29.7682 23.1948C29.8036 23.2279 29.8317 23.2678 29.851 23.3123C29.8703 23.3567 29.8802 23.4046 29.8802 23.453C29.8802 23.5014 29.8703 23.5493 29.851 23.5937C29.8317 23.6381 29.8036 23.6781 29.7682 23.7112C29.7352 23.744 29.696 23.7699 29.6529 23.7875C29.6098 23.8051 29.5636 23.8141 29.5171 23.8138C29.4243 23.8134 29.3354 23.7766 29.2695 23.7112L27.9996 22.4413L26.7474 23.7112C26.6815 23.7766 26.5926 23.8134 26.4998 23.8138C26.4533 23.8141 26.4071 23.8051 26.364 23.7875C26.3209 23.7699 26.2817 23.744 26.2487 23.7112C26.1828 23.6449 26.1458 23.5553 26.1458 23.4618C26.1458 23.3684 26.1828 23.2787 26.2487 23.2125L27.5009 21.9426L26.2487 20.6904C26.1907 20.6227 26.1605 20.5357 26.1639 20.4467C26.1673 20.3577 26.2042 20.2732 26.2672 20.2102C26.3302 20.1472 26.4147 20.1103 26.5037 20.1069C26.5927 20.1034 26.6798 20.1337 26.7474 20.1917L27.9996 21.4438L29.2518 20.1917C29.2845 20.1578 29.3236 20.1306 29.3669 20.1118C29.4101 20.093 29.4566 20.0829 29.5037 20.0821C29.5509 20.0813 29.5977 20.0898 29.6416 20.107C29.6854 20.1243 29.7255 20.1501 29.7594 20.1828C29.7933 20.2156 29.8204 20.2547 29.8392 20.2979C29.858 20.3411 29.8681 20.3877 29.8689 20.4348C29.8697 20.4819 29.8613 20.5288 29.844 20.5726C29.8267 20.6165 29.801 20.6565 29.7682 20.6904L28.4984 21.9426L29.7682 23.1948Z" fill="#FF2929"/>
<path d="M35.2554 31.754H34.8252C34.0096 31.764 33.2077 31.5327 32.5098 31.0862C31.823 31.5371 31.0303 31.7752 30.2219 31.7733C29.409 31.7751 28.6112 31.5408 27.9156 31.0959C27.2318 31.5367 26.4469 31.771 25.646 31.7733C24.8393 31.7716 24.0483 31.5374 23.3581 31.0959C22.6733 31.5426 21.8838 31.7774 21.0793 31.7733H20.6492C20.0793 31.7143 19.5275 31.5297 19.0293 31.2314V38.3063C19.0316 38.7514 19.1986 39.1778 19.4945 39.4944C19.7904 39.8109 20.1917 39.9924 20.6125 40H24.0445V35.1608C24.0445 34.7758 24.1891 34.4065 24.4465 34.1342C24.704 33.862 25.0531 33.709 25.4172 33.709H30.4507C30.8148 33.709 31.1639 33.862 31.4214 34.1342C31.6788 34.4065 31.8234 34.7758 31.8234 35.1608V40H35.2554C35.6794 39.9974 36.0853 39.8182 36.3852 39.5011C36.685 39.184 36.8545 38.7547 36.8569 38.3063V31.212C36.3642 31.5077 35.8189 31.6923 35.2554 31.754Z" fill="#141E23"/>
</g>
<rect x="4.5" y="4" width="48" height="48" rx="24" stroke="#F1F6F9" stroke-width="8"/>
</svg>
