<svg width="15" height="16" viewBox="0 0 15 16" fill="none" xmlns="http://www.w3.org/2000/svg">
<mask id="mask0_17_1016" style="mask-type:alpha" maskUnits="userSpaceOnUse" x="0" y="0" width="15" height="16">
<rect y="0.5" width="15" height="15" fill="#D9D9D9"/>
</mask>
<g mask="url(#mask0_17_1016)">
<path d="M13.5517 6.48144L12.6477 3.71171C12.5812 3.50602 12.453 3.32699 12.2814 3.20006C12.1098 3.07312 11.9036 3.00471 11.6918 3.00455H3.30807C3.09635 3.00471 2.89007 3.07312 2.71849 3.20006C2.54692 3.32699 2.41876 3.50602 2.35222 3.71171L1.4482 6.48144C1.3562 6.76662 1.30954 7.06507 1.31001 7.36539V7.7838C1.30327 8.26832 1.47089 8.73845 1.78094 9.10466C2.09099 9.47088 2.52181 9.7076 2.99137 9.76975C3.25191 9.7972 3.51517 9.76837 3.76413 9.68513C4.01309 9.60189 4.2422 9.46609 4.43665 9.28652C4.50254 9.23054 4.56414 9.16946 4.62091 9.10384C4.79703 9.31863 5.01747 9.49081 5.26637 9.608C5.51528 9.72518 5.78647 9.78444 6.06043 9.78154C6.33408 9.78242 6.60463 9.72225 6.85324 9.60521C7.10185 9.48817 7.32255 9.31707 7.49996 9.10384C7.67731 9.32019 7.8996 9.49329 8.15063 9.61054C8.40166 9.72778 8.6751 9.7862 8.951 9.78154C9.22354 9.77887 9.49228 9.71587 9.73878 9.59685C9.98528 9.47783 10.2037 9.30563 10.379 9.09205C10.4359 9.16117 10.4975 9.22615 10.5633 9.28652C10.7575 9.4664 10.9866 9.6024 11.2356 9.68566C11.4846 9.76892 11.748 9.79757 12.0085 9.76975C12.4781 9.7076 12.9089 9.47088 13.219 9.10466C13.529 8.73845 13.6966 8.26832 13.6899 7.7838V7.36539C13.6904 7.06507 13.6437 6.76662 13.5517 6.48144Z" fill="white"/>
<path d="M5.81177 12.2613H9.18821C9.23298 12.2613 9.27592 12.2776 9.30758 12.3066C9.33924 12.3356 9.35703 12.375 9.35703 12.416V15.3563H5.64294V12.416C5.64294 12.375 5.66073 12.3356 5.69239 12.3066C5.72405 12.2776 5.76699 12.2613 5.81177 12.2613Z" fill="white"/>
<circle cx="7.49998" cy="4.21409" r="3.71409" fill="white"/>
<path d="M9.68841 2.02543C9.25555 1.59261 8.70406 1.29787 8.10368 1.17847C7.5033 1.05907 6.881 1.12038 6.31547 1.35465C5.74994 1.58892 5.26658 1.98562 4.9265 2.49459C4.58642 3.00357 4.40491 3.60196 4.40491 4.21409C4.40491 4.82623 4.58642 5.42461 4.9265 5.93359C5.26658 6.44256 5.74994 6.83927 6.31547 7.07353C6.881 7.3078 7.5033 7.36911 8.10368 7.24971C8.70406 7.13032 9.25555 6.83557 9.68841 6.40275C9.97585 6.11534 10.2039 5.77413 10.3594 5.3986C10.515 5.02306 10.595 4.62057 10.595 4.21409C10.595 3.80761 10.515 3.40512 10.3594 3.02959C10.2039 2.65405 9.97585 2.31284 9.68841 2.02543ZM8.60514 4.9967C8.62723 5.01738 8.64483 5.04237 8.65687 5.07013C8.66891 5.09789 8.67512 5.12783 8.67512 5.15809C8.67512 5.18835 8.66891 5.21828 8.65687 5.24604C8.64483 5.2738 8.62723 5.29879 8.60514 5.31947C8.58448 5.33996 8.55998 5.35617 8.53305 5.36718C8.50611 5.37818 8.47727 5.38375 8.44817 5.38359C8.39018 5.38334 8.3346 5.36032 8.29342 5.31947L7.49975 4.52581L6.71714 5.31947C6.67597 5.36032 6.62039 5.38334 6.56239 5.38359C6.5333 5.38375 6.50445 5.37818 6.47752 5.36718C6.45058 5.35617 6.42608 5.33996 6.40543 5.31947C6.36425 5.27805 6.34114 5.22202 6.34114 5.16361C6.34114 5.10521 6.36425 5.04918 6.40543 5.00776L7.18804 4.21409L6.40543 3.43148C6.36921 3.38919 6.35028 3.33479 6.35243 3.27915C6.35458 3.22351 6.37765 3.17073 6.41702 3.13136C6.45639 3.09198 6.50917 3.06892 6.56481 3.06677C6.62045 3.06462 6.67485 3.08354 6.71714 3.11976L7.49975 3.90237L8.28237 3.11976C8.30283 3.09857 8.32728 3.08161 8.3543 3.06987C8.38132 3.05812 8.41038 3.05181 8.43984 3.0513C8.4693 3.05078 8.49857 3.05608 8.52599 3.06688C8.5534 3.07767 8.57842 3.09377 8.59961 3.11424C8.6208 3.1347 8.63776 3.15914 8.64951 3.18617C8.66125 3.21319 8.66756 3.24225 8.66808 3.27171C8.66859 3.30117 8.6633 3.33044 8.6525 3.35786C8.6417 3.38527 8.6256 3.41029 8.60514 3.43148L7.81147 4.21409L8.60514 4.9967Z" fill="#FF2929"/>
<path d="M12.0346 10.3462H11.7658C11.256 10.3525 10.7548 10.2079 10.3186 9.92886C9.88938 10.2107 9.39394 10.3595 8.88868 10.3583C8.38061 10.3595 7.88202 10.213 7.44728 9.93491C7.01989 10.2104 6.52929 10.3569 6.02876 10.3583C5.52458 10.3572 5.03021 10.2109 4.5988 9.93491C4.17084 10.2141 3.67741 10.3608 3.17456 10.3583H2.90572C2.54959 10.3214 2.20471 10.206 1.89331 10.0196V14.4414C1.89477 14.7196 1.99913 14.9861 2.18407 15.184C2.36901 15.3818 2.61982 15.4953 2.88284 15.5H5.02779V12.4755C5.02779 12.2348 5.11818 12.0041 5.27908 11.8339C5.43998 11.6637 5.65821 11.5681 5.88576 11.5681H9.03168C9.25923 11.5681 9.47746 11.6637 9.63836 11.8339C9.79926 12.0041 9.88965 12.2348 9.88965 12.4755V15.5H12.0346C12.2996 15.4984 12.5533 15.3864 12.7407 15.1882C12.9281 14.99 13.0341 14.7217 13.0356 14.4414V10.0075C12.7276 10.1923 12.3868 10.3077 12.0346 10.3462Z" fill="white"/>
</g>
</svg>
