<svg width="20" height="20" viewBox="0 0 20 20" fill="none" xmlns="http://www.w3.org/2000/svg">
<g clip-path="url(#clip0_127_26903)">
<path d="M1.5625 5.625H18.4375V18.4375H1.5625V5.625Z" fill="#FFED86"/>
<path d="M2.1875 5.625H18.4375V18.4375H2.1875V5.625Z" fill="#FFDC52"/>
<path d="M18.4375 6.5625H1.5625V8.1875C1.72323 8.32581 1.91254 8.4269 2.11688 8.48355C2.32123 8.54019 2.53556 8.55098 2.74456 8.51515C2.95356 8.47932 3.15207 8.39776 3.32588 8.27629C3.49969 8.15482 3.64451 7.99645 3.75 7.8125C3.87592 8.03286 4.05786 8.21602 4.27738 8.34342C4.4969 8.47081 4.74619 8.5379 5 8.5379C5.25381 8.5379 5.5031 8.47081 5.72262 8.34342C5.94214 8.21602 6.12408 8.03286 6.25 7.8125C6.37592 8.03286 6.55786 8.21602 6.77738 8.34342C6.9969 8.47081 7.24619 8.5379 7.5 8.5379C7.75381 8.5379 8.0031 8.47081 8.22262 8.34342C8.44214 8.21602 8.62408 8.03286 8.75 7.8125C8.87592 8.03286 9.05786 8.21602 9.27738 8.34342C9.4969 8.47081 9.74619 8.5379 10 8.5379C10.2538 8.5379 10.5031 8.47081 10.7226 8.34342C10.9421 8.21602 11.1241 8.03286 11.25 7.8125C11.3759 8.03286 11.5579 8.21602 11.7774 8.34342C11.9969 8.47081 12.2462 8.5379 12.5 8.5379C12.7538 8.5379 13.0031 8.47081 13.2226 8.34342C13.4421 8.21602 13.6241 8.03286 13.75 7.8125C13.8759 8.03286 14.0579 8.21602 14.2774 8.34342C14.4969 8.47081 14.7462 8.5379 15 8.5379C15.2538 8.5379 15.5031 8.47081 15.7226 8.34342C15.9421 8.21602 16.1241 8.03286 16.25 7.8125C16.3555 7.99645 16.5003 8.15482 16.6741 8.27629C16.8479 8.39776 17.0464 8.47932 17.2554 8.51515C17.4644 8.55098 17.6788 8.54019 17.8831 8.48355C18.0875 8.4269 18.2768 8.32581 18.4375 8.1875V6.5625Z" fill="#FFDC52"/>
<path d="M13.75 6.5625H2.1875V8.49563C2.48678 8.56542 2.80061 8.53662 3.08218 8.41352C3.36376 8.29041 3.59801 8.07959 3.75 7.8125C3.87592 8.03286 4.05786 8.21602 4.27738 8.34342C4.4969 8.47081 4.74619 8.5379 5 8.5379C5.25381 8.5379 5.5031 8.47081 5.72262 8.34342C5.94214 8.21602 6.12408 8.03286 6.25 7.8125C6.37592 8.03286 6.55786 8.21602 6.77738 8.34342C6.9969 8.47081 7.24619 8.5379 7.5 8.5379C7.75381 8.5379 8.0031 8.47081 8.22262 8.34342C8.44214 8.21602 8.62408 8.03286 8.75 7.8125C8.87592 8.03286 9.05786 8.21602 9.27738 8.34342C9.4969 8.47081 9.74619 8.5379 10 8.5379C10.2538 8.5379 10.5031 8.47081 10.7226 8.34342C10.9421 8.21602 11.1241 8.03286 11.25 7.8125C11.3759 8.03286 11.5579 8.21602 11.7774 8.34342C11.9969 8.47081 12.2462 8.5379 12.5 8.5379C12.7538 8.5379 13.0031 8.47081 13.2226 8.34342C13.4421 8.21602 13.6241 8.03286 13.75 7.8125C13.8759 8.03286 14.0579 8.21602 14.2774 8.34342C14.4969 8.47081 14.7462 8.5379 15 8.5379C15.2538 8.5379 15.5031 8.47081 15.7226 8.34342C15.9421 8.21602 16.1241 8.03286 16.25 7.8125C16.3555 7.99645 16.5003 8.15482 16.6741 8.27629C16.8479 8.39776 17.0464 8.47932 17.2554 8.51515C17.4644 8.55098 17.6788 8.54019 17.8831 8.48355C18.0875 8.4269 18.2768 8.32581 18.4375 8.1875V6.5625H13.75Z" fill="#FCC338"/>
<path d="M3.4375 0.3125H16.5625V2.1875H3.4375V0.3125Z" fill="#BEDFFF"/>
<path d="M4.0625 0.9375H16.5625V2.1875H4.0625V0.9375Z" fill="#A4D2FF"/>
<path d="M0.9375 18.4375H19.0625V19.6875H0.9375V18.4375Z" fill="#8C9BB0"/>
<path d="M1.5625 19.0625H19.0625V19.6875H1.5625V19.0625Z" fill="#788CA3"/>
<path d="M18.75 7.1875C18.6241 7.40786 18.4421 7.59102 18.2226 7.71842C18.0031 7.84581 17.7538 7.9129 17.5 7.9129C17.2462 7.9129 16.9969 7.84581 16.7774 7.71842C16.5579 7.59102 16.3759 7.40786 16.25 7.1875V5.9375H18.75V7.1875Z" fill="#FF4F62"/>
<path d="M16.25 7.1875C16.1241 7.40786 15.9421 7.59102 15.7226 7.71842C15.5031 7.84581 15.2538 7.9129 15 7.9129C14.7462 7.9129 14.4969 7.84581 14.2774 7.71842C14.0579 7.59102 13.8759 7.40786 13.75 7.1875V5.9375H16.25V7.1875Z" fill="#E1EAFF"/>
<path d="M13.75 7.1875C13.6241 7.40786 13.4421 7.59102 13.2226 7.71842C13.0031 7.84581 12.7538 7.9129 12.5 7.9129C12.2462 7.9129 11.9969 7.84581 11.7774 7.71842C11.5579 7.59102 11.3759 7.40786 11.25 7.1875V5.9375H13.75V7.1875Z" fill="#FF4F62"/>
<path d="M11.25 7.1875C11.1241 7.40786 10.9421 7.59102 10.7226 7.71842C10.5031 7.84581 10.2538 7.9129 10 7.9129C9.74619 7.9129 9.4969 7.84581 9.27738 7.71842C9.05786 7.59102 8.87592 7.40786 8.75 7.1875V5.9375H11.25V7.1875Z" fill="#E1EAFF"/>
<path d="M8.75 7.1875C8.62408 7.40786 8.44214 7.59102 8.22262 7.71842C8.0031 7.84581 7.75381 7.9129 7.5 7.9129C7.24619 7.9129 6.9969 7.84581 6.77738 7.71842C6.55786 7.59102 6.37592 7.40786 6.25 7.1875V5.9375H8.75V7.1875Z" fill="#FF4F62"/>
<path d="M6.25 7.1875C6.12408 7.40786 5.94214 7.59102 5.72262 7.71842C5.5031 7.84581 5.25381 7.9129 5 7.9129C4.74619 7.9129 4.4969 7.84581 4.27738 7.71842C4.05786 7.59102 3.87592 7.40786 3.75 7.1875V5.9375H6.25V7.1875Z" fill="#E1EAFF"/>
<path d="M3.75 7.1875C3.62408 7.40786 3.44214 7.59102 3.22262 7.71842C3.0031 7.84581 2.75381 7.9129 2.5 7.9129C2.24619 7.9129 1.9969 7.84581 1.77738 7.71842C1.55786 7.59102 1.37592 7.40786 1.25 7.1875V5.9375H3.75V7.1875Z" fill="#FF809C"/>
<path d="M1.875 7.5C1.95696 7.6425 2.06264 7.76995 2.1875 7.87687C2.48744 7.94503 2.80136 7.91479 3.08278 7.79063C3.36419 7.66647 3.59815 7.45499 3.75 7.1875V5.9375H1.875V7.5Z" fill="#FF4F62"/>
<path d="M17.0494 2.1875H2.95063C2.81929 2.18734 2.69124 2.22855 2.58466 2.30529C2.47808 2.38203 2.39838 2.4904 2.35687 2.615L1.25 5.9375H18.75L17.6425 2.615C17.601 2.4905 17.5214 2.3822 17.415 2.30547C17.3085 2.22874 17.1806 2.18747 17.0494 2.1875Z" fill="#FFA4B8"/>
<path d="M2.77406 3.24L1.875 5.9375H18.75L17.7084 2.8125H3.36719C3.23596 2.81247 3.10805 2.85374 3.00159 2.93047C2.89514 3.0072 2.81553 3.1155 2.77406 3.24Z" fill="#FF809C"/>
<path d="M8.92844 2.1875L8.75 5.9375H11.25L11.0716 2.1875H8.92844ZM4.64281 2.1875L3.75 5.9375H6.25L6.78563 2.1875H4.64281ZM13.2144 2.1875L13.75 5.9375H16.25L15.3572 2.1875H13.2144Z" fill="#FBFCFF"/>
<path d="M8.89875 2.8125L8.75 5.9375H11.25L11.1012 2.8125H8.89875ZM4.49406 2.8125L3.75 5.9375H6.25L6.69656 2.8125H4.49406ZM13.3034 2.8125L13.75 5.9375H16.25L15.5059 2.8125H13.3034Z" fill="#F0F4FF"/>
<path d="M3.125 12.1875H7.1875V18.4375H3.125V12.1875Z" fill="#A06B40"/>
<path d="M3.75 12.8125H7.1875V18.4375H3.75V12.8125Z" fill="#AA7A4C"/>
<path d="M5.9375 15.9375C5.85462 15.9375 5.77513 15.9046 5.71653 15.846C5.65792 15.7874 5.625 15.7079 5.625 15.625V15C5.625 14.9171 5.65792 14.8376 5.71653 14.779C5.77513 14.7204 5.85462 14.6875 5.9375 14.6875C6.02038 14.6875 6.09987 14.7204 6.15847 14.779C6.21708 14.8376 6.25 14.9171 6.25 15V15.625C6.25 15.7079 6.21708 15.7874 6.15847 15.846C6.09987 15.9046 6.02038 15.9375 5.9375 15.9375Z" fill="#A06B40"/>
<path d="M8.75 9.0625H16.875V17.1875H8.75V9.0625Z" fill="#85C4F9"/>
<path d="M9.375 9.6875H16.875V17.1875H9.375V9.6875Z" fill="#A4D2FF"/>
<path d="M15.3363 10.6012C15.3363 10.6012 15.6175 12.5287 14.6003 13.5447C13.5832 14.5606 11.6563 14.2812 11.6563 14.2812C11.6563 14.2812 11.375 12.3541 12.3919 11.3381C13.4088 10.3222 15.3363 10.6012 15.3363 10.6012Z" fill="#FFED86"/>
<path d="M12.8346 11.7791C12.1096 12.5041 12.0453 13.6903 12.0675 14.3119C12.689 14.3341 13.8753 14.2697 14.5987 13.5447C15.3221 12.8197 15.3884 11.6334 15.3662 11.0119C14.7459 10.9894 13.56 11.0541 12.8346 11.7791Z" fill="#FFDC52"/>
<path d="M10 14.3906C10.4881 13.9025 11.6534 14.284 11.6534 14.284C11.6534 14.284 12.035 15.4493 11.5469 15.9375L10 14.3906Z" fill="#FFED86"/>
<path d="M11.7406 14.6388C11.3569 14.5653 10.7581 14.5166 10.4419 14.8328L11.5469 15.9375C11.8631 15.6213 11.8141 15.0225 11.7406 14.6388ZM15.3366 10.601C14.6397 10.5162 13.9327 10.5841 13.2647 10.8C13.3111 11.281 13.5234 11.7308 13.865 12.0725C14.2067 12.4142 14.6566 12.6264 15.1375 12.6728C15.3535 12.0048 15.4214 11.2979 15.3366 10.601Z" fill="#FFDC52"/>
<path d="M13.4102 11.3728C13.5489 11.7286 13.784 12.0386 14.089 12.2682C14.3941 12.4979 14.7571 12.6379 15.1373 12.6728C15.317 12.1384 15.3952 11.5751 15.368 11.0119C14.6959 10.9734 14.0243 11.0972 13.4102 11.3728Z" fill="#FCC338"/>
<path d="M3.125 9.375H7.1875V10.9375H3.125V9.375Z" fill="#85C4F9"/>
<path d="M3.75 10H7.1875V10.9375H3.75V10Z" fill="#A4D2FF"/>
</g>
<defs>
<clipPath id="clip0_127_26903">
<rect width="20" height="20" fill="white"/>
</clipPath>
</defs>
</svg>
