<svg width="15" height="16" viewBox="0 0 15 16" fill="none" xmlns="http://www.w3.org/2000/svg">
<mask id="mask0_12_646" style="mask-type:alpha" maskUnits="userSpaceOnUse" x="0" y="0" width="15" height="16">
<rect y="0.5" width="15" height="15" fill="#D9D9D9"/>
</mask>
<g mask="url(#mask0_12_646)">
<path d="M13.6103 6.53927L12.6975 3.74277C12.6303 3.53508 12.5009 3.35433 12.3277 3.22616C12.1545 3.098 11.9462 3.02893 11.7324 3.02876H3.26758C3.05381 3.02893 2.84554 3.098 2.6723 3.22616C2.49906 3.35433 2.36967 3.53508 2.30249 3.74277L1.38973 6.53927C1.29683 6.82721 1.24972 7.12855 1.2502 7.43178V7.85423C1.2434 8.34343 1.41263 8.81811 1.72568 9.18787C2.03873 9.55762 2.47372 9.79663 2.94782 9.85938C3.21087 9.8871 3.47668 9.85799 3.72804 9.77394C3.97941 9.6899 4.21074 9.55279 4.40707 9.37148C4.4736 9.31496 4.5358 9.25329 4.59311 9.18703C4.77093 9.40391 4.9935 9.57775 5.24482 9.69606C5.49613 9.81438 5.76994 9.87422 6.04656 9.87129C6.32285 9.87218 6.59602 9.81142 6.84703 9.69325C7.09804 9.57508 7.32087 9.40233 7.5 9.18703C7.67906 9.40547 7.90351 9.58025 8.15697 9.69863C8.41043 9.81701 8.68651 9.87599 8.96507 9.87129C9.24024 9.86859 9.51159 9.80498 9.76047 9.68481C10.0094 9.56464 10.2299 9.39077 10.4069 9.17513C10.4644 9.24492 10.5265 9.31052 10.5929 9.37148C10.7891 9.5531 11.0204 9.69042 11.2718 9.77448C11.5232 9.85854 11.7891 9.88747 12.0522 9.85938C12.5263 9.79663 12.9613 9.55762 13.2743 9.18787C13.5874 8.81811 13.7566 8.34343 13.7498 7.85423V7.43178C13.7503 7.12855 13.7032 6.82721 13.6103 6.53927Z" fill="white"/>
<path d="M5.79545 12.2513H9.20454C9.24975 12.2513 9.29311 12.2677 9.32507 12.297C9.35704 12.3263 9.375 12.3661 9.375 12.4075V15.3763H5.625V12.4075C5.625 12.3661 5.64296 12.3263 5.67492 12.297C5.70689 12.2677 5.75025 12.2513 5.79545 12.2513Z" fill="white"/>
<circle cx="7.50007" cy="4.25" r="3.75" fill="white"/>
<path d="M7.50006 1.12497C9.22477 1.12497 10.6251 2.52526 10.6251 4.24997C10.6251 5.97468 9.22477 7.37497 7.50006 7.37497C5.77535 7.37497 4.37506 5.97468 4.37506 4.24997C4.37506 2.52526 5.77535 1.12497 7.50006 1.12497ZM6.03785 4.40404L6.90995 5.27613C6.93017 5.29638 6.95418 5.31245 6.98062 5.32341C7.00706 5.33437 7.0354 5.34001 7.06401 5.34001C7.09263 5.34001 7.12097 5.33437 7.14741 5.32341C7.17385 5.31245 7.19786 5.29638 7.21808 5.27613L8.96227 3.53195C8.9825 3.51171 8.99855 3.48769 9.0095 3.46126C9.02045 3.43482 9.02609 3.40649 9.02609 3.37788C9.02609 3.34926 9.02045 3.32093 9.0095 3.29449C8.99855 3.26806 8.9825 3.24404 8.96227 3.22381C8.94204 3.20357 8.91802 3.18752 8.89158 3.17657C8.86515 3.16562 8.83681 3.15999 8.8082 3.15999C8.77959 3.15999 8.75125 3.16562 8.72482 3.17657C8.69838 3.18752 8.67436 3.20357 8.65413 3.22381L7.06401 4.81363L6.34599 4.0959C6.32576 4.07567 6.30174 4.05962 6.2753 4.04867C6.24887 4.03772 6.22054 4.03208 6.19192 4.03208C6.16331 4.03208 6.13498 4.03772 6.10854 4.04867C6.0821 4.05962 6.05808 4.07567 6.03785 4.0959C6.01762 4.11613 6.00157 4.14015 5.99062 4.16659C5.97967 4.19302 5.97403 4.22136 5.97403 4.24997C5.97403 4.27858 5.97967 4.30692 5.99062 4.33335C6.00157 4.35979 6.01762 4.38381 6.03785 4.40404Z" fill="#24C176"/>
<path d="M12.1143 10.4306H11.8429C11.3283 10.4368 10.8222 10.2946 10.3818 10.0201C9.94839 10.2973 9.44816 10.4437 8.93801 10.4425C8.42503 10.4436 7.92162 10.2995 7.48267 10.026C7.05115 10.297 6.55581 10.4411 6.05044 10.4425C5.54138 10.4414 5.04223 10.2974 4.60665 10.026C4.17455 10.3007 3.67635 10.445 3.16863 10.4425H2.8972C2.53762 10.4062 2.18942 10.2927 1.875 10.1093V14.4588C1.87647 14.7324 1.98184 14.9946 2.16857 15.1892C2.3553 15.3838 2.60854 15.4954 2.8741 15.5H5.03978V12.525C5.03978 12.2883 5.13105 12.0613 5.29351 11.8939C5.45597 11.7265 5.67631 11.6325 5.90606 11.6325H9.08239C9.31214 11.6325 9.53248 11.7265 9.69494 11.8939C9.8574 12.0613 9.94867 12.2883 9.94867 12.525V15.5H12.1143C12.3819 15.4985 12.6381 15.3883 12.8273 15.1933C13.0165 14.9984 13.1235 14.7344 13.125 14.4588V10.0974C12.8141 10.2792 12.47 10.3927 12.1143 10.4306Z" fill="white"/>
</g>
</svg>
