<svg width="21" height="20" viewBox="0 0 21 20" fill="none" xmlns="http://www.w3.org/2000/svg">
<mask id="mask0_35_4793" style="mask-type:alpha" maskUnits="userSpaceOnUse" x="0" y="0" width="21" height="20">
<rect x="0.5" width="20" height="20" fill="#D9D9D9"/>
</mask>
<g mask="url(#mask0_35_4793)">
<path d="M18.6474 8.05239L17.4303 4.32371C17.3408 4.04679 17.1682 3.80579 16.9373 3.6349C16.7063 3.46401 16.4286 3.37192 16.1436 3.3717H4.85709C4.57208 3.37192 4.29437 3.46401 4.06339 3.6349C3.83241 3.80579 3.65989 4.04679 3.57031 4.32371L2.3533 8.05239C2.22944 8.4363 2.16662 8.83809 2.16726 9.24239V9.80566C2.15819 10.4579 2.38383 11.0908 2.80123 11.5838C3.21863 12.0769 3.79862 12.3955 4.43075 12.4792C4.78149 12.5161 5.13589 12.4773 5.47105 12.3653C5.80621 12.2532 6.11465 12.0704 6.37642 11.8287C6.46513 11.7533 6.54806 11.6711 6.62448 11.5827C6.86157 11.8719 7.15833 12.1037 7.49342 12.2614C7.8285 12.4192 8.19358 12.499 8.5624 12.4951C8.9308 12.4963 9.29502 12.4152 9.6297 12.2577C9.96439 12.1001 10.2615 11.8698 10.5003 11.5827C10.7391 11.874 11.0383 12.107 11.3763 12.2649C11.7142 12.4227 12.0823 12.5013 12.4538 12.4951C12.8207 12.4915 13.1824 12.4067 13.5143 12.2464C13.8461 12.0862 14.1402 11.8544 14.3762 11.5669C14.4528 11.6599 14.5357 11.7474 14.6242 11.8287C14.8857 12.0708 15.1941 12.2539 15.5294 12.366C15.8646 12.4781 16.2191 12.5167 16.5699 12.4792C17.202 12.3955 17.782 12.0769 18.1994 11.5838C18.6168 11.0908 18.8425 10.4579 18.8334 9.80566V9.24239C18.834 8.83809 18.7712 8.4363 18.6474 8.05239Z" fill="white"/>
<path d="M8.22727 15.6683H12.7727C12.833 15.6683 12.8908 15.6903 12.9334 15.7294C12.9761 15.7684 13 15.8214 13 15.8767V19.835H8V15.8767C8 15.8214 8.02394 15.7684 8.06657 15.7294C8.10919 15.6903 8.167 15.6683 8.22727 15.6683Z" fill="white"/>
<ellipse cx="10.5" cy="5.00001" rx="5.00001" ry="5.00001" fill="white"/>
<path d="M10.4997 0.833252C12.7993 0.833252 14.6663 2.70031 14.6663 4.99992C14.6663 7.29953 12.7993 9.16659 10.4997 9.16659C8.20006 9.16659 6.33301 7.29953 6.33301 4.99992C6.33301 2.70031 8.20006 0.833252 10.4997 0.833252ZM8.55006 5.20535L9.71285 6.36814C9.73982 6.39514 9.77184 6.41656 9.80709 6.43117C9.84234 6.44579 9.88012 6.45331 9.91828 6.45331C9.95644 6.45331 9.99422 6.44579 10.0295 6.43117C10.0647 6.41656 10.0967 6.39514 10.1237 6.36814L12.4493 4.04255C12.4763 4.01558 12.4977 3.98355 12.5123 3.9483C12.5269 3.91306 12.5344 3.87528 12.5344 3.83713C12.5344 3.79898 12.5269 3.7612 12.5123 3.72595C12.4977 3.69071 12.4763 3.65868 12.4493 3.6317C12.4223 3.60472 12.3903 3.58333 12.355 3.56873C12.3198 3.55413 12.282 3.54661 12.2439 3.54661C12.2057 3.54661 12.1679 3.55413 12.1327 3.56873C12.0974 3.58333 12.0654 3.60472 12.0384 3.6317L9.91828 5.75147L8.96091 4.79449C8.93394 4.76752 8.90191 4.74612 8.86666 4.73152C8.83142 4.71692 8.79364 4.7094 8.75549 4.7094C8.71734 4.7094 8.67956 4.71692 8.64431 4.73152C8.60907 4.74612 8.57704 4.76752 8.55006 4.79449C8.52308 4.82147 8.50169 4.8535 8.48709 4.88874C8.47249 4.92399 8.46497 4.96177 8.46497 4.99992C8.46497 5.03807 8.47249 5.07585 8.48709 5.11109C8.50169 5.14634 8.52308 5.17837 8.55006 5.20535Z" fill="#0C557E"/>
<path d="M16.6525 13.2408H16.2906C15.6043 13.249 14.9296 13.0594 14.3424 12.6934C13.7645 13.063 13.0976 13.2582 12.4174 13.2566C11.7334 13.2581 11.0622 13.066 10.4769 12.7013C9.90154 13.0626 9.24109 13.2547 8.56725 13.2566C7.88851 13.2552 7.22298 13.0632 6.6422 12.7013C6.06607 13.0675 5.4018 13.2599 4.72485 13.2566H4.36294C3.8835 13.2082 3.41922 13.0569 3 12.8124V18.6116C3.00196 18.9765 3.14246 19.3261 3.39143 19.5855C3.6404 19.845 3.97805 19.9938 4.33214 20H7.21971V16.0333C7.21971 15.7177 7.3414 15.415 7.55801 15.1918C7.77462 14.9687 8.06841 14.8433 8.37474 14.8433H12.6099C12.9162 14.8433 13.21 14.9687 13.4266 15.1918C13.6432 15.415 13.7649 15.7177 13.7649 16.0333V20H16.6525C17.0092 19.9979 17.3508 19.851 17.6031 19.591C17.8554 19.3311 17.998 18.9792 18 18.6116V12.7965C17.5854 13.0389 17.1266 13.1902 16.6525 13.2408Z" fill="white"/>
</g>
</svg>
