<svg width="56" height="56" viewBox="0 0 56 56" fill="none" xmlns="http://www.w3.org/2000/svg">
<rect width="56" height="56" rx="15" fill="white"/>
<rect x="4" y="4" width="48" height="48" rx="12" fill="#F2F2F2"/>
<path d="M17.9531 23.0312H39.0469V39.0469H17.9531V23.0312Z" fill="#FFED86"/>
<path d="M18.7344 23.0312H39.0469V39.0469H18.7344V23.0312Z" fill="#FFDC52"/>
<path d="M39.0469 24.2031H17.9531V26.2344C18.154 26.4073 18.3907 26.5336 18.6461 26.6044C18.9015 26.6752 19.1695 26.6887 19.4307 26.6439C19.692 26.5992 19.9401 26.4972 20.1573 26.3454C20.3746 26.1935 20.5556 25.9956 20.6875 25.7656C20.8449 26.0411 21.0723 26.27 21.3467 26.4293C21.6211 26.5885 21.9327 26.6724 22.25 26.6724C22.5673 26.6724 22.8789 26.5885 23.1533 26.4293C23.4277 26.27 23.6551 26.0411 23.8125 25.7656C23.9699 26.0411 24.1973 26.27 24.4717 26.4293C24.7461 26.5885 25.0577 26.6724 25.375 26.6724C25.6923 26.6724 26.0039 26.5885 26.2783 26.4293C26.5527 26.27 26.7801 26.0411 26.9375 25.7656C27.0949 26.0411 27.3223 26.27 27.5967 26.4293C27.8711 26.5885 28.1827 26.6724 28.5 26.6724C28.8173 26.6724 29.1289 26.5885 29.4033 26.4293C29.6777 26.27 29.9051 26.0411 30.0625 25.7656C30.2199 26.0411 30.4473 26.27 30.7217 26.4293C30.9961 26.5885 31.3077 26.6724 31.625 26.6724C31.9423 26.6724 32.2539 26.5885 32.5283 26.4293C32.8027 26.27 33.0301 26.0411 33.1875 25.7656C33.3449 26.0411 33.5723 26.27 33.8467 26.4293C34.1211 26.5885 34.4327 26.6724 34.75 26.6724C35.0673 26.6724 35.3789 26.5885 35.6533 26.4293C35.9277 26.27 36.1551 26.0411 36.3125 25.7656C36.4444 25.9956 36.6254 26.1935 36.8427 26.3454C37.0599 26.4972 37.308 26.5992 37.5693 26.6439C37.8305 26.6887 38.0985 26.6752 38.3539 26.6044C38.6093 26.5336 38.846 26.4073 39.0469 26.2344V24.2031Z" fill="#FFDC52"/>
<path d="M33.1875 24.2031H18.7344V26.6195C19.1085 26.7068 19.5008 26.6708 19.8527 26.5169C20.2047 26.363 20.4975 26.0995 20.6875 25.7656C20.8449 26.0411 21.0723 26.27 21.3467 26.4293C21.6211 26.5885 21.9327 26.6724 22.25 26.6724C22.5673 26.6724 22.8789 26.5885 23.1533 26.4293C23.4277 26.27 23.6551 26.0411 23.8125 25.7656C23.9699 26.0411 24.1973 26.27 24.4717 26.4293C24.7461 26.5885 25.0577 26.6724 25.375 26.6724C25.6923 26.6724 26.0039 26.5885 26.2783 26.4293C26.5527 26.27 26.7801 26.0411 26.9375 25.7656C27.0949 26.0411 27.3223 26.27 27.5967 26.4293C27.8711 26.5885 28.1827 26.6724 28.5 26.6724C28.8173 26.6724 29.1289 26.5885 29.4033 26.4293C29.6777 26.27 29.9051 26.0411 30.0625 25.7656C30.2199 26.0411 30.4473 26.27 30.7217 26.4293C30.9961 26.5885 31.3077 26.6724 31.625 26.6724C31.9423 26.6724 32.2539 26.5885 32.5283 26.4293C32.8027 26.27 33.0301 26.0411 33.1875 25.7656C33.3449 26.0411 33.5723 26.27 33.8467 26.4293C34.1211 26.5885 34.4327 26.6724 34.75 26.6724C35.0673 26.6724 35.3789 26.5885 35.6533 26.4293C35.9277 26.27 36.1551 26.0411 36.3125 25.7656C36.4444 25.9956 36.6254 26.1935 36.8427 26.3454C37.0599 26.4972 37.308 26.5992 37.5693 26.6439C37.8305 26.6887 38.0985 26.6752 38.3539 26.6044C38.6093 26.5336 38.846 26.4073 39.0469 26.2344V24.2031H33.1875Z" fill="#FCC338"/>
<path d="M20.2969 16.3906H36.7031V18.7344H20.2969V16.3906Z" fill="#BEDFFF"/>
<path d="M21.0781 17.1719H36.7031V18.7344H21.0781V17.1719Z" fill="#A4D2FF"/>
<path d="M17.1719 39.0469H39.8281V40.6094H17.1719V39.0469Z" fill="#8C9BB0"/>
<path d="M17.9531 39.8281H39.8281V40.6094H17.9531V39.8281Z" fill="#788CA3"/>
<path d="M39.4375 24.9844C39.2801 25.2598 39.0527 25.4888 38.7783 25.648C38.5039 25.8073 38.1923 25.8911 37.875 25.8911C37.5577 25.8911 37.2461 25.8073 36.9717 25.648C36.6973 25.4888 36.4699 25.2598 36.3125 24.9844V23.4219H39.4375V24.9844Z" fill="#FF4F62"/>
<path d="M36.3125 24.9844C36.1551 25.2598 35.9277 25.4888 35.6533 25.648C35.3789 25.8073 35.0673 25.8911 34.75 25.8911C34.4327 25.8911 34.1211 25.8073 33.8467 25.648C33.5723 25.4888 33.3449 25.2598 33.1875 24.9844V23.4219H36.3125V24.9844Z" fill="#E1EAFF"/>
<path d="M33.1875 24.9844C33.0301 25.2598 32.8027 25.4888 32.5283 25.648C32.2539 25.8073 31.9423 25.8911 31.625 25.8911C31.3077 25.8911 30.9961 25.8073 30.7217 25.648C30.4473 25.4888 30.2199 25.2598 30.0625 24.9844V23.4219H33.1875V24.9844Z" fill="#FF4F62"/>
<path d="M30.0625 24.9844C29.9051 25.2598 29.6777 25.4888 29.4033 25.648C29.1289 25.8073 28.8173 25.8911 28.5 25.8911C28.1827 25.8911 27.8711 25.8073 27.5967 25.648C27.3223 25.4888 27.0949 25.2598 26.9375 24.9844V23.4219H30.0625V24.9844Z" fill="#E1EAFF"/>
<path d="M26.9375 24.9844C26.7801 25.2598 26.5527 25.4888 26.2783 25.648C26.0039 25.8073 25.6923 25.8911 25.375 25.8911C25.0577 25.8911 24.7461 25.8073 24.4717 25.648C24.1973 25.4888 23.9699 25.2598 23.8125 24.9844V23.4219H26.9375V24.9844Z" fill="#FF4F62"/>
<path d="M23.8125 24.9844C23.6551 25.2598 23.4277 25.4888 23.1533 25.648C22.8789 25.8073 22.5673 25.8911 22.25 25.8911C21.9327 25.8911 21.6211 25.8073 21.3467 25.648C21.0723 25.4888 20.8449 25.2598 20.6875 24.9844V23.4219H23.8125V24.9844Z" fill="#E1EAFF"/>
<path d="M20.6875 24.9844C20.5301 25.2598 20.3027 25.4888 20.0283 25.648C19.7539 25.8073 19.4423 25.8911 19.125 25.8911C18.8077 25.8911 18.4961 25.8073 18.2217 25.648C17.9473 25.4888 17.7199 25.2598 17.5625 24.9844V23.4219H20.6875V24.9844Z" fill="#FF809C"/>
<path d="M18.3438 25.375C18.4462 25.5531 18.5783 25.7124 18.7344 25.8461C19.1093 25.9313 19.5017 25.8935 19.8535 25.7383C20.2052 25.5831 20.4977 25.3187 20.6875 24.9844V23.4219H18.3438V25.375Z" fill="#FF4F62"/>
<path d="M37.3117 18.7344H19.6883C19.5241 18.7342 19.3641 18.7857 19.2308 18.8816C19.0976 18.9775 18.998 19.113 18.9461 19.2688L17.5625 23.4219H39.4375L38.0531 19.2688C38.0013 19.1131 37.9018 18.9778 37.7687 18.8818C37.6356 18.7859 37.4758 18.7343 37.3117 18.7344Z" fill="#FFA4B8"/>
<path d="M19.4676 20.05L18.3438 23.4219H39.4375L38.1355 19.5156H20.209C20.0449 19.5156 19.8851 19.5672 19.752 19.6631C19.6189 19.759 19.5194 19.8944 19.4676 20.05Z" fill="#FF809C"/>
<path d="M27.1605 18.7344L26.9375 23.4219H30.0625L29.8395 18.7344H27.1605ZM21.8035 18.7344L20.6875 23.4219H23.8125L24.482 18.7344H21.8035ZM32.518 18.7344L33.1875 23.4219H36.3125L35.1965 18.7344H32.518Z" fill="#FBFCFF"/>
<path d="M27.1234 19.5156L26.9375 23.4219H30.0625L29.8766 19.5156H27.1234ZM21.6176 19.5156L20.6875 23.4219H23.8125L24.3707 19.5156H21.6176ZM32.6293 19.5156L33.1875 23.4219H36.3125L35.3824 19.5156H32.6293Z" fill="#F0F4FF"/>
<path d="M19.9062 31.2344H24.9844V39.0469H19.9062V31.2344Z" fill="#A06B40"/>
<path d="M20.6875 32.0156H24.9844V39.0469H20.6875V32.0156Z" fill="#AA7A4C"/>
<path d="M23.4219 35.9219C23.3183 35.9219 23.2189 35.8807 23.1457 35.8075C23.0724 35.7342 23.0312 35.6349 23.0312 35.5312V34.75C23.0312 34.6464 23.0724 34.547 23.1457 34.4738C23.2189 34.4005 23.3183 34.3594 23.4219 34.3594C23.5255 34.3594 23.6248 34.4005 23.6981 34.4738C23.7713 34.547 23.8125 34.6464 23.8125 34.75V35.5312C23.8125 35.6349 23.7713 35.7342 23.6981 35.8075C23.6248 35.8807 23.5255 35.9219 23.4219 35.9219Z" fill="#A06B40"/>
<path d="M26.9375 27.3281H37.0938V37.4844H26.9375V27.3281Z" fill="#85C4F9"/>
<path d="M27.7188 28.1094H37.0938V37.4844H27.7188V28.1094Z" fill="#A4D2FF"/>
<path d="M35.1705 29.2516C35.1705 29.2516 35.522 31.661 34.2506 32.9309C32.9791 34.2008 30.5705 33.8516 30.5705 33.8516C30.5705 33.8516 30.2189 31.4426 31.49 30.1727C32.7611 28.9028 35.1705 29.2516 35.1705 29.2516Z" fill="#FFED86"/>
<path d="M32.0434 30.7239C31.1372 31.6302 31.0567 33.113 31.0844 33.89C31.8614 33.9177 33.3442 33.8372 34.2485 32.931C35.1528 32.0247 35.2356 30.5419 35.2079 29.765C34.4325 29.7368 32.9501 29.8177 32.0434 30.7239Z" fill="#FFDC52"/>
<path d="M28.5 33.9883C29.1102 33.3782 30.5668 33.8551 30.5668 33.8551C30.5668 33.8551 31.0438 35.3118 30.4336 35.9219L28.5 33.9883Z" fill="#FFED86"/>
<path d="M30.6757 34.2983C30.196 34.2065 29.4476 34.1456 29.0522 34.5409L30.4335 35.9218C30.8288 35.5264 30.7675 34.778 30.6757 34.2983ZM35.1706 29.2511C34.2995 29.1451 33.4158 29.23 32.5808 29.4999C32.6388 30.1011 32.9041 30.6634 33.3312 31.0905C33.7583 31.5176 34.3206 31.7829 34.9218 31.8409C35.1917 31.0059 35.2766 30.1222 35.1706 29.2511Z" fill="#FFDC52"/>
<path d="M32.7627 30.2161C32.9361 30.6608 33.2299 31.0484 33.6113 31.3354C33.9926 31.6224 34.4464 31.7975 34.9217 31.8411C35.1462 31.173 35.244 30.4689 35.21 29.7649C34.3698 29.7168 33.5304 29.8715 32.7627 30.2161Z" fill="#FCC338"/>
<path d="M19.9062 27.7188H24.9844V29.6719H19.9062V27.7188Z" fill="#85C4F9"/>
<path d="M20.6875 28.5H24.9844V29.6719H20.6875V28.5Z" fill="#A4D2FF"/>
</svg>
