<svg width="25" height="25" viewBox="0 0 25 25" fill="none" xmlns="http://www.w3.org/2000/svg">
<path d="M1.95312 7.03125H23.0469V23.0469H1.95312V7.03125Z" fill="#E7E7E7"/>
<path d="M2.73438 7.03125H23.0469V23.0469H2.73438V7.03125Z" fill="#D7D7D7"/>
<path d="M23.0469 8.20312H1.95312V10.2344C2.15404 10.4073 2.39067 10.5336 2.6461 10.6044C2.90153 10.6752 3.16945 10.6887 3.4307 10.6439C3.69195 10.5992 3.94008 10.4972 4.15735 10.3454C4.37461 10.1935 4.55564 9.99556 4.6875 9.76562C4.8449 10.0411 5.07233 10.27 5.34673 10.4293C5.62113 10.5885 5.93274 10.6724 6.25 10.6724C6.56726 10.6724 6.87887 10.5885 7.15327 10.4293C7.42767 10.27 7.6551 10.0411 7.8125 9.76562C7.9699 10.0411 8.19733 10.27 8.47173 10.4293C8.74613 10.5885 9.05774 10.6724 9.375 10.6724C9.69226 10.6724 10.0039 10.5885 10.2783 10.4293C10.5527 10.27 10.7801 10.0411 10.9375 9.76562C11.0949 10.0411 11.3223 10.27 11.5967 10.4293C11.8711 10.5885 12.1827 10.6724 12.5 10.6724C12.8173 10.6724 13.1289 10.5885 13.4033 10.4293C13.6777 10.27 13.9051 10.0411 14.0625 9.76562C14.2199 10.0411 14.4473 10.27 14.7217 10.4293C14.9961 10.5885 15.3077 10.6724 15.625 10.6724C15.9423 10.6724 16.2539 10.5885 16.5283 10.4293C16.8027 10.27 17.0301 10.0411 17.1875 9.76562C17.3449 10.0411 17.5723 10.27 17.8467 10.4293C18.1211 10.5885 18.4327 10.6724 18.75 10.6724C19.0673 10.6724 19.3789 10.5885 19.6533 10.4293C19.9277 10.27 20.1551 10.0411 20.3125 9.76562C20.4444 9.99556 20.6254 10.1935 20.8427 10.3454C21.0599 10.4972 21.308 10.5992 21.5693 10.6439C21.8305 10.6887 22.0985 10.6752 22.3539 10.6044C22.6093 10.5336 22.846 10.4073 23.0469 10.2344V8.20312Z" fill="#D7D7D7"/>
<path d="M17.1875 8.20312H2.73438V10.6195C3.10848 10.7068 3.50076 10.6708 3.85273 10.5169C4.2047 10.363 4.49751 10.0995 4.6875 9.76562C4.8449 10.0411 5.07233 10.27 5.34673 10.4293C5.62113 10.5885 5.93274 10.6724 6.25 10.6724C6.56726 10.6724 6.87887 10.5885 7.15327 10.4293C7.42767 10.27 7.6551 10.0411 7.8125 9.76562C7.9699 10.0411 8.19733 10.27 8.47173 10.4293C8.74613 10.5885 9.05774 10.6724 9.375 10.6724C9.69226 10.6724 10.0039 10.5885 10.2783 10.4293C10.5527 10.27 10.7801 10.0411 10.9375 9.76562C11.0949 10.0411 11.3223 10.27 11.5967 10.4293C11.8711 10.5885 12.1827 10.6724 12.5 10.6724C12.8173 10.6724 13.1289 10.5885 13.4033 10.4293C13.6777 10.27 13.9051 10.0411 14.0625 9.76562C14.2199 10.0411 14.4473 10.27 14.7217 10.4293C14.9961 10.5885 15.3077 10.6724 15.625 10.6724C15.9423 10.6724 16.2539 10.5885 16.5283 10.4293C16.8027 10.27 17.0301 10.0411 17.1875 9.76562C17.3449 10.0411 17.5723 10.27 17.8467 10.4293C18.1211 10.5885 18.4327 10.6724 18.75 10.6724C19.0673 10.6724 19.3789 10.5885 19.6533 10.4293C19.9277 10.27 20.1551 10.0411 20.3125 9.76562C20.4444 9.99556 20.6254 10.1935 20.8427 10.3454C21.0599 10.4972 21.308 10.5992 21.5693 10.6439C21.8305 10.6887 22.0985 10.6752 22.3539 10.6044C22.6093 10.5336 22.846 10.4073 23.0469 10.2344V8.20312H17.1875Z" fill="#C5C5C5"/>
<path d="M4.29688 0.390625H20.7031V2.73438H4.29688V0.390625Z" fill="#D9D9D9"/>
<path d="M5.07812 1.17188H20.7031V2.73438H5.07812V1.17188Z" fill="#C9C9C9"/>
<path d="M1.17188 23.0469H23.8281V24.6094H1.17188V23.0469Z" fill="#999999"/>
<path d="M1.95312 23.8281H23.8281V24.6094H1.95312V23.8281Z" fill="#898989"/>
<path d="M23.4375 8.98438C23.2801 9.25983 23.0527 9.48878 22.7783 9.64802C22.5039 9.80726 22.1923 9.89113 21.875 9.89113C21.5577 9.89113 21.2461 9.80726 20.9717 9.64802C20.6973 9.48878 20.4699 9.25983 20.3125 8.98438V7.42188H23.4375V8.98438Z" fill="#868686"/>
<path d="M20.3125 8.98438C20.1551 9.25983 19.9277 9.48878 19.6533 9.64802C19.3789 9.80726 19.0673 9.89113 18.75 9.89113C18.4327 9.89113 18.1211 9.80726 17.8467 9.64802C17.5723 9.48878 17.3449 9.25983 17.1875 8.98438V7.42188H20.3125V8.98438Z" fill="#EAEAEA"/>
<path d="M17.1875 8.98438C17.0301 9.25983 16.8027 9.48878 16.5283 9.64802C16.2539 9.80726 15.9423 9.89113 15.625 9.89113C15.3077 9.89113 14.9961 9.80726 14.7217 9.64802C14.4473 9.48878 14.2199 9.25983 14.0625 8.98438V7.42188H17.1875V8.98438Z" fill="#868686"/>
<path d="M14.0625 8.98438C13.9051 9.25983 13.6777 9.48878 13.4033 9.64802C13.1289 9.80726 12.8173 9.89113 12.5 9.89113C12.1827 9.89113 11.8711 9.80726 11.5967 9.64802C11.3223 9.48878 11.0949 9.25983 10.9375 8.98438V7.42188H14.0625V8.98438Z" fill="#EAEAEA"/>
<path d="M10.9375 8.98438C10.7801 9.25983 10.5527 9.48878 10.2783 9.64802C10.0039 9.80726 9.69226 9.89113 9.375 9.89113C9.05774 9.89113 8.74613 9.80726 8.47173 9.64802C8.19733 9.48878 7.9699 9.25983 7.8125 8.98438V7.42188H10.9375V8.98438Z" fill="#868686"/>
<path d="M7.8125 8.98438C7.6551 9.25983 7.42767 9.48878 7.15327 9.64802C6.87887 9.80726 6.56726 9.89113 6.25 9.89113C5.93274 9.89113 5.62113 9.80726 5.34673 9.64802C5.07233 9.48878 4.8449 9.25983 4.6875 8.98438V7.42188H7.8125V8.98438Z" fill="#EAEAEA"/>
<path d="M4.6875 8.98438C4.5301 9.25983 4.30267 9.48878 4.02827 9.64802C3.75387 9.80726 3.44226 9.89113 3.125 9.89113C2.80774 9.89113 2.49612 9.80726 2.22173 9.64802C1.94733 9.48878 1.7199 9.25983 1.5625 8.98438V7.42188H4.6875V8.98438Z" fill="#A9A9A9"/>
<path d="M2.34375 9.375C2.4462 9.55312 2.5783 9.71244 2.73438 9.84609C3.1093 9.93129 3.5017 9.89349 3.85347 9.73829C4.20524 9.58309 4.49768 9.31874 4.6875 8.98437V7.42188H2.34375V9.375Z" fill="#868686"/>
<path d="M21.3117 2.73438H3.68828C3.52411 2.73417 3.36405 2.78569 3.23082 2.88161C3.0976 2.97754 2.99797 3.11299 2.94609 3.26875L1.5625 7.42188H23.4375L22.0531 3.26875C22.0013 3.11312 21.9018 2.97776 21.7687 2.88184C21.6356 2.78593 21.4758 2.73434 21.3117 2.73438Z" fill="#C1C1C1"/>
<path d="M3.46758 4.05L2.34375 7.42188H23.4375L22.1355 3.51563H4.20898C4.04495 3.51559 3.88506 3.56718 3.75199 3.66309C3.61892 3.759 3.51941 3.89437 3.46758 4.05Z" fill="#A9A9A9"/>
<path d="M11.1605 2.73438L10.9375 7.42188H14.0625L13.8395 2.73438H11.1605ZM5.80352 2.73438L4.6875 7.42188H7.8125L8.48203 2.73438H5.80352ZM16.518 2.73438L17.1875 7.42188H20.3125L19.1965 2.73438H16.518Z" fill="#FCFCFC"/>
<path d="M11.1234 3.51562L10.9375 7.42188H14.0625L13.8766 3.51562H11.1234ZM5.61758 3.51562L4.6875 7.42188H7.8125L8.3707 3.51562H5.61758ZM16.6293 3.51562L17.1875 7.42188H20.3125L19.3824 3.51562H16.6293Z" fill="#F0F4FF"/>
<path d="M3.90625 15.2344H8.98438V23.0469H3.90625V15.2344Z" fill="#767676"/>
<path d="M4.6875 16.0156H8.98438V23.0469H4.6875V16.0156Z" fill="#838383"/>
<path d="M7.42188 19.9219C7.31827 19.9219 7.21892 19.8807 7.14566 19.8075C7.0724 19.7342 7.03125 19.6349 7.03125 19.5312V18.75C7.03125 18.6464 7.0724 18.547 7.14566 18.4738C7.21892 18.4005 7.31827 18.3594 7.42188 18.3594C7.52548 18.3594 7.62483 18.4005 7.69809 18.4738C7.77135 18.547 7.8125 18.6464 7.8125 18.75V19.5312C7.8125 19.6349 7.77135 19.7342 7.69809 19.8075C7.62483 19.8807 7.52548 19.9219 7.42188 19.9219Z" fill="#767676"/>
<path d="M10.9375 11.3281H21.0938V21.4844H10.9375V11.3281Z" fill="#B7B7B7"/>
<path d="M11.7188 12.1094H21.0938V21.4844H11.7188V12.1094Z" fill="#C9C9C9"/>
<path d="M19.1702 13.2516C19.1702 13.2516 19.5218 15.661 18.2503 16.9309C16.9788 18.2008 14.5702 17.8516 14.5702 17.8516C14.5702 17.8516 14.2187 15.4426 15.4898 14.1727C16.7609 12.9028 19.1702 13.2516 19.1702 13.2516Z" fill="#E7E7E7"/>
<path d="M16.0434 14.7238C15.1372 15.6301 15.0567 17.1129 15.0844 17.8898C15.8614 17.9176 17.3442 17.8371 18.2485 16.9308C19.1528 16.0246 19.2356 14.5418 19.2079 13.7648C18.4325 13.7367 16.9501 13.8176 16.0434 14.7238Z" fill="#D7D7D7"/>
<path d="M12.5 17.9882C13.1102 17.3781 14.5668 17.855 14.5668 17.855C14.5668 17.855 15.0438 19.3117 14.4336 19.9218L12.5 17.9882Z" fill="#E7E7E7"/>
<path d="M14.6757 18.2984C14.196 18.2066 13.4476 18.1457 13.0522 18.541L14.4335 19.9219C14.8288 19.5266 14.7675 18.7781 14.6757 18.2984ZM19.1706 13.2512C18.2995 13.1452 17.4158 13.2301 16.5808 13.5C16.6388 14.1012 16.9041 14.6635 17.3312 15.0906C17.7583 15.5177 18.3206 15.783 18.9218 15.841C19.1917 15.006 19.2766 14.1223 19.1706 13.2512Z" fill="#D7D7D7"/>
<path d="M16.7629 14.216C16.9363 14.6607 17.2302 15.0482 17.6115 15.3353C17.9929 15.6223 18.4466 15.7974 18.9219 15.841C19.1465 15.1729 19.2443 14.4688 19.2102 13.7648C18.3701 13.7167 17.5307 13.8714 16.7629 14.216Z" fill="#C5C5C5"/>
<path d="M3.90625 11.7188H8.98438V13.6719H3.90625V11.7188Z" fill="#B7B7B7"/>
<path d="M4.6875 12.5H8.98438V13.6719H4.6875V12.5Z" fill="#C9C9C9"/>
</svg>
