<svg width="24" height="24" viewBox="0 0 24 24" fill="none" xmlns="http://www.w3.org/2000/svg">
<path d="M20.163 15.273C20.0553 15.2716 19.9484 15.2919 19.8487 15.3325C19.7489 15.3732 19.6583 15.4334 19.5823 15.5097C19.5062 15.5859 19.4462 15.6766 19.4058 15.7765C19.3654 15.8763 19.3454 15.9833 19.347 16.091V18.136C19.347 18.852 18.735 19.364 18.122 19.364H16.082C15.9742 19.3625 15.8672 19.3826 15.7674 19.4232C15.6675 19.4638 15.5768 19.524 15.5006 19.6003C15.4244 19.6766 15.3643 19.7673 15.3239 19.8673C15.2834 19.9672 15.2634 20.0742 15.265 20.182C15.265 20.693 15.571 21 16.082 21H18.122C18.4978 21.0002 18.87 20.9263 19.2172 20.7823C19.5645 20.6384 19.8798 20.4274 20.1453 20.1613C20.4107 19.8952 20.621 19.5793 20.7641 19.2317C20.9071 18.8842 20.9802 18.5118 20.979 18.136V16.091C20.979 15.681 20.571 15.273 20.163 15.273ZM16.082 4.63595H18.122C18.837 4.63595 19.347 5.24995 19.347 5.86395V7.90895C19.347 8.31895 19.653 8.72695 20.163 8.72695C20.673 8.72695 20.98 8.42095 20.98 7.90895V5.86395C20.98 4.32995 19.755 2.99995 18.122 2.99995H16.082C15.9742 2.99847 15.8672 3.01862 15.7674 3.05922C15.6675 3.09982 15.5768 3.16003 15.5006 3.2363C15.4244 3.31257 15.3643 3.40334 15.3239 3.50325C15.2834 3.60316 15.2634 3.71017 15.265 3.81795C15.265 4.32995 15.674 4.63595 16.082 4.63595ZM7.91799 19.364H5.87799C5.16299 19.364 4.65299 18.75 4.65299 18.136V16.091C4.65299 15.681 4.34699 15.273 3.83699 15.273C3.32699 15.273 3.01999 15.682 3.01999 16.091V18.136C3.01999 19.671 4.24499 21 5.87799 21H7.91799C8.02577 21.0014 8.13276 20.9813 8.23262 20.9407C8.33248 20.9001 8.42318 20.8399 8.49936 20.7636C8.57553 20.6873 8.63564 20.5966 8.67611 20.4967C8.71658 20.3967 8.7366 20.2897 8.73499 20.182C8.7366 20.0742 8.71658 19.9672 8.67611 19.8673C8.63564 19.7673 8.57553 19.6766 8.49936 19.6003C8.42318 19.524 8.33248 19.4638 8.23262 19.4232C8.13276 19.3826 8.02577 19.3625 7.91799 19.364ZM3.83699 8.72695C3.94469 8.7283 4.05157 8.70805 4.15131 8.66739C4.25105 8.62674 4.34164 8.5665 4.4177 8.49025C4.49377 8.41399 4.55379 8.32326 4.5942 8.22342C4.63461 8.12358 4.6546 8.01665 4.65299 7.90895V5.86395C4.65299 5.14795 5.26499 4.63595 5.87799 4.63595H7.91799C8.02577 4.63744 8.13276 4.61729 8.23262 4.57669C8.33248 4.53609 8.42318 4.47588 8.49936 4.39961C8.57553 4.32334 8.63564 4.23257 8.67611 4.13266C8.71658 4.03275 8.7366 3.92574 8.73499 3.81795C8.7366 3.71017 8.71658 3.60316 8.67611 3.50325C8.63564 3.40334 8.57553 3.31257 8.49936 3.2363C8.42318 3.16003 8.33248 3.09982 8.23262 3.05922C8.13276 3.01862 8.02577 2.99847 7.91799 2.99995H5.87799C4.34699 2.99995 3.01999 4.32995 3.01999 5.86395V7.90895C3.01999 8.31895 3.42899 8.72695 3.83699 8.72695Z" fill="#DD4224"/>
<path d="M16.082 18.136C16.6231 18.1334 17.1412 17.9169 17.5233 17.5338C17.9055 17.1507 18.1207 16.6321 18.122 16.091V14.251H5.879V16.091C5.88031 16.6321 6.0955 17.1507 6.47765 17.5338C6.8598 17.9169 7.3779 18.1334 7.919 18.136H16.082ZM21.184 11.182H18.123V7.90901C18.1217 7.36774 17.9064 6.84896 17.524 6.46585C17.1416 6.08273 16.6233 5.86639 16.082 5.86401H7.918C7.3769 5.86665 6.8588 6.08311 6.47665 6.4662C6.0945 6.84928 5.87931 7.36791 5.878 7.90901V11.387H2.816C2.7083 11.3857 2.60142 11.4059 2.50168 11.4466C2.40193 11.4872 2.31135 11.5475 2.23528 11.6237C2.15921 11.7 2.0992 11.7907 2.05879 11.8905C2.01838 11.9904 1.99839 12.0973 2 12.205C2 12.716 2.306 13.023 2.816 13.023H21.184C21.2917 13.0244 21.3986 13.0041 21.4983 12.9635C21.5981 12.9228 21.6886 12.8626 21.7647 12.7863C21.8408 12.7101 21.9008 12.6193 21.9412 12.5195C21.9816 12.4196 22.0016 12.3127 22 12.205C22 11.693 21.592 11.182 21.184 11.182Z" fill="#0C557E"/>
</svg>
