<svg width="24" height="24" viewBox="0 0 24 24" fill="none" xmlns="http://www.w3.org/2000/svg">
<rect width="24" height="24" rx="12" fill="#0C557E" fill-opacity="0.07"/>
<g clip-path="url(#clip0_227_8901)">
<path d="M13.375 10.1667H9.25002C8.74585 10.1667 8.33335 10.5792 8.33335 11.0834V13.8334C8.33335 14.3376 8.74585 14.7501 9.25002 14.7501C9.75419 14.7501 10.1667 14.3376 10.1667 13.8334V12.0001H13.375V13.1826C13.375 13.5951 13.87 13.7967 14.1542 13.5034L16.2534 11.4042C16.4367 11.2209 16.4367 10.9367 16.2534 10.7534L14.1542 8.65425C13.87 8.37008 13.375 8.57175 13.375 8.97508V10.1667ZM12 1.91675C6.40835 1.91675 1.91669 6.40842 1.91669 12.0001C1.91669 17.5917 6.40835 22.0834 12 22.0834C17.5917 22.0834 22.0834 17.5917 22.0834 12.0001C22.0834 6.40842 17.5917 1.91675 12 1.91675ZM19.0859 12.5317L12.495 19.1501C12.1742 19.3976 11.7709 19.3976 11.4409 19.1501L4.85002 12.5317C4.60252 12.2017 4.60252 11.7984 4.85002 11.4684L11.4409 4.85008C11.7617 4.60258 12.165 4.60258 12.495 4.85008L19.0859 11.4684C19.4159 11.7159 19.4159 12.2017 19.0859 12.5317Z" fill="#0C557E"/>
</g>
<defs>
<clipPath id="clip0_227_8901">
<rect width="22" height="22" fill="white" transform="translate(1 1)"/>
</clipPath>
</defs>
</svg>
